<?xml version="1.0" standalone="no"?>
<!DOCTYPE svg PUBLIC "-//W3C//DTD SVG 1.1//EN" "http://www.w3.org/Graphics/SVG/1.1/DTD/svg11.dtd" >
<svg xmlns="http://www.w3.org/2000/svg" xmlns:xlink="http://www.w3.org/1999/xlink" version="1.1">
<metadata></metadata>
<defs>
<font id="skater_girls_rockregular" horiz-adv-x="858" >
<font-face units-per-em="2048" ascent="1638" descent="-410" />
<missing-glyph horiz-adv-x="374" />
<glyph horiz-adv-x="0" />
<glyph unicode="&#xd;" horiz-adv-x="374" />
<glyph unicode=" "  horiz-adv-x="374" />
<glyph unicode="&#x09;" horiz-adv-x="374" />
<glyph unicode="&#xa0;" horiz-adv-x="374" />
<glyph unicode="!" horiz-adv-x="485" d="M39 0q6 55 12 128t10 128q20 0 57.5 1t76 1t75 -1t56.5 -1v-51t2 -69t3 -71.5t1 -62.5q-16 0 -53 -1t-81 -1h-87h-72zM59 1356h312q-2 -29 -5.5 -103.5t-7.5 -174t-8 -213t-8 -219t-9 -191.5t-7 -131h-258q2 35 2 111.5v174t-1 206t-3.5 211.5t-3.5 189.5t-3 139.5z" />
<glyph unicode="#" horiz-adv-x="708" d="M39 901v24.5t1 36l2 39t3 31.5h109q4 18 10 38l12 40h-94v24.5t1 36t2 38t1 30.5q6 2 41 2h86q14 49 23.5 84t13.5 41q6 -2 22.5 -7t35 -11.5t36.5 -12.5t29 -10q-2 -4 -8.5 -26.5t-16.5 -57.5h74q12 41 20.5 69.5t10.5 35.5q16 -4 58 -17.5t64 -23.5q0 -4 -5 -20.5 t-11 -45.5h62q0 -8 1 -24.5t1 -36v-37v-29.5h-101l-24 -80q35 0 55 -1t25 -1q0 -8 1 -24.5t1 -35t1 -37t1 -30.5q-4 2 -38 2t-83 -2q-14 -47 -23.5 -76.5t-11.5 -33.5q-8 2 -23.5 6t-34 8t-36 9t-29.5 9q2 2 8 22.5t17 55.5h-40t-38 -2q-10 -37 -17.5 -60.5t-11.5 -27.5 q-6 2 -21.5 6t-34 8t-35.5 9.5t-30 9.5q4 4 17 55h-78zM289 1032h73q6 20 12.5 40t10.5 38h-74q-6 -18 -11 -37.5t-11 -40.5z" />
<glyph unicode="$" horiz-adv-x="851" d="M49 449q10 14 29.5 33.5t41 40t44 42t41.5 37.5q12 -23 39.5 -55.5t62.5 -63.5q2 20 4 41t4 41q-49 35 -106 79t-92 85q-61 68 -62.5 144.5t38.5 142t116 107.5t168 38h12q10 68 16.5 114t10.5 60q49 -29 82.5 -46t58.5 -32q-4 -16 -9 -54t-13 -91q76 -41 137 -99.5 t92 -105.5q-16 -12 -45 -31.5t-61.5 -42t-64.5 -44t-56 -35.5q-14 14 -45 55q-4 -18 -6.5 -36.5t-4.5 -35.5q4 -2 5.5 -4t5.5 -4q57 -41 111 -81t92 -83t54.5 -91t-1.5 -105q-12 -39 -44 -69t-78 -50.5t-101.5 -28.5t-114.5 -4q-4 -45 -7.5 -75.5t-5.5 -45.5 q-45 18 -76.5 28.5t-50.5 14.5q2 14 4 41t7 64q-70 27 -130.5 77t-101.5 128zM314.5 882q9.5 -24 33.5 -46q4 25 6 49t6 47q-20 6 -32 -6q-23 -20 -13.5 -44zM434 403q39 -6 62 17q14 16 -2.5 33.5t-47.5 35.5q-6 -47 -12 -86z" />
<glyph unicode="&#x26;" horiz-adv-x="1214" d="M127 369q0 41 11.5 85t31.5 85t48 74.5t58 56.5q-37 47 -60 108.5t-23 132.5q0 68 26.5 128.5t70.5 105.5t103.5 71.5t124.5 26.5q66 0 126.5 -26.5t106.5 -71.5t71.5 -105.5t21.5 -128.5q-4 -66 -25.5 -128t-89.5 -119q4 -4 28.5 -42t60.5 -95.5t77 -123t77 -122 t60.5 -95.5t28.5 -43q-25 -16 -62.5 -37.5t-75.5 -43t-70 -39t-42 -23.5q-4 4 -16.5 28.5t-34.5 61.5q-55 -49 -125 -70.5t-143 -19.5q-96 2 -165 30.5t-113 78t-65.5 116t-21.5 144.5zM375 358q0 -59 34.5 -104t108.5 -49q37 -2 74 15.5t55 62.5q-25 43 -47 83t-40.5 69.5 t-31 48t-14.5 18.5q-33 2 -58.5 -9.5t-44 -32t-27.5 -47t-9 -55.5zM430 885q0 -39 21.5 -72t66.5 -33q45 2 70.5 32t26.5 66.5t-21.5 68.5t-73.5 36q-45 2 -67.5 -28.5t-22.5 -69.5z" />
<glyph unicode="'" horiz-adv-x="655" d="M68 969q6 12 22 47t36.5 82t45.5 99t47.5 100.5t40 86.5t27.5 56q59 -27 126.5 -62t139.5 -71q-35 -45 -82 -107.5t-96 -125t-95.5 -115t-80.5 -72.5q-41 25 -78 50.5t-53 31.5z" />
<glyph unicode="(" horiz-adv-x="612" d="M0 518q2 127 29.5 253t85 237.5t147.5 203t217 148.5q16 -53 32.5 -125t39.5 -133q-102 -55 -170 -149.5t-103.5 -206t-41 -231.5t18.5 -228.5t73 -195.5t125 -134q-20 -27 -38 -49.5t-38.5 -44t-45 -45t-57.5 -54.5q-61 35 -112 110t-88 176.5t-56.5 221t-17.5 246.5z " />
<glyph unicode=")" horiz-adv-x="641" d="M2 1102q23 61 39 133t33 125q127 -57 217 -148.5t147.5 -203t85 -237.5t29.5 -253t-17.5 -246.5t-56.5 -221t-88 -176.5t-112 -110q-35 31 -58.5 54.5t-44 45t-38 44l-38.5 49.5q74 47 124 134t74 195.5t18.5 228.5t-41 231.5t-103.5 206t-170 149.5z" />
<glyph unicode="*" horiz-adv-x="702" d="M33 1020v24.5t1 35l2 37t1 30.5h117q-33 39 -54.5 63.5t-23.5 28.5q6 6 17 16.5t23.5 22.5t26 24.5t21.5 20.5q2 -4 19.5 -23.5t45.5 -50.5v97h22.5t36 -1.5t38 -2.5t28.5 -3q2 -4 2 -31.5v-70.5q31 31 51.5 52.5t24.5 25.5l17.5 -17.5t24.5 -26t25.5 -28.5t18.5 -22 l-74 -74q47 0 77 -1t34 -1v-23.5v-34t1 -36t1 -29.5q-4 2 -38 1t-85 -1q33 -35 54.5 -60.5t25.5 -29.5q-6 -6 -18.5 -16.5t-26.5 -22.5t-28.5 -23.5t-24.5 -17.5q-4 4 -19.5 21.5t-40.5 46.5q-2 -41 -2 -67v-30q-8 0 -23.5 -1t-33.5 -1h-35.5h-30.5v113q-33 -33 -54 -53.5 t-25 -24.5l-17.5 17.5t-25 23.5t-25.5 24.5t-21 20.5q4 2 25 23.5t53 54.5h-108z" />
<glyph unicode="+" horiz-adv-x="675" d="M0 143v57.5t2 84.5t4 89t6 72q12 0 47 1.5t84 1.5q-2 51 -2 87.5t2 53.5h57.5t84.5 -2t89 -5t72 -5q0 -12 1.5 -47t1.5 -85q53 0 89 -1t46 -3v-56t2 -82t3 -87t1 -70q-10 2 -48 2.5t-96 -2.5q0 -53 -1 -92t-3 -49h-56t-82 -2t-87 -3t-70 -1q2 10 2.5 48t-2.5 95 q-53 -2 -92 -2t-55 2z" />
<glyph unicode="," horiz-adv-x="444" d="M27 -346q16 43 28.5 95t17.5 111.5t-1.5 127t-26.5 139.5h67t92 -2t89 -2h57q0 -12 -5 -48t-16.5 -84t-34 -101.5t-58 -101.5t-87 -85t-122.5 -49z" />
<glyph unicode="-" horiz-adv-x="696" d="M0 465v57t2 84t4 89t6 73q14 0 59.5 1t105 1h127t126.5 -1t101.5 -2t52.5 -3v-56t2 -82t3 -87t1 -70q-10 2 -52 2t-101.5 -1t-128 -3t-131 -3t-111 -1t-66.5 2z" />
<glyph unicode="." horiz-adv-x="438" d="M31 2q0 27 1 62.5t3 71.5t2 69v51q20 0 56 1t75 1t76 -1t57 -1q4 -55 10.5 -128t12.5 -128h-72h-87t-82 1t-52 1z" />
<glyph unicode="/" horiz-adv-x="813" d="M4 -70q8 29 32.5 98.5t60.5 166t78 211t87 231.5t88 229.5t79 203.5t62.5 153t36.5 80q74 -41 125.5 -68t89.5 -49q-10 -23 -37.5 -86.5t-64.5 -153.5t-82 -198.5t-92 -221t-91 -221t-80 -200t-60.5 -157t-32.5 -89.5q-72 29 -121 46t-78 25z" />
<glyph unicode="0" horiz-adv-x="909" d="M0 621q0 129 26.5 241.5t79 197.5t130.5 133t180 46q115 -2 193.5 -50t127.5 -132t71.5 -195.5t22.5 -240.5t-28.5 -243t-82.5 -200t-131 -134t-173 -44q-106 4 -185 53t-130.5 132t-76 195t-24.5 241zM266 598q0 -68 8.5 -128t25.5 -104t46 -71t70 -29q37 -2 65.5 24.5 t48 72t28.5 106.5t9 129q0 70 -7 130t-24.5 104.5t-46 71t-73.5 28.5q-41 0 -69 -25.5t-46 -72t-26.5 -106.5t-8.5 -130z" />
<glyph unicode="1" horiz-adv-x="739" d="M0 674q23 27 72 98.5t104 157.5t106.5 171t77.5 142v2q63 0 145.5 -2t158.5 2q-2 -31 -4.5 -121t-6.5 -213t-9 -263t-9 -269t-8 -230.5t-6 -148.5h-261q2 29 3.5 95.5t1.5 155.5v193.5v212.5q-49 -76 -87 -130t-49 -66q-12 10 -39.5 33.5t-59.5 53.5t-66.5 62.5 t-63.5 63.5z" />
<glyph unicode="2" horiz-adv-x="841" d="M2 84q-8 137 21.5 228t76.5 152.5t103.5 101.5t101.5 75q31 25 69 58.5t67.5 72.5t38.5 76t-19 67q-25 25 -54.5 10.5t-57 -53t-47 -93t-23.5 -107.5q-31 18 -68 42.5t-72 48t-66.5 45t-52.5 36.5q8 49 41 116.5t86.5 130t126 106.5t162.5 44q86 2 150.5 -26.5 t106.5 -75.5t64.5 -107.5t23.5 -124t-18.5 -126t-57.5 -111.5q-55 -70 -125 -120t-135.5 -98.5t-116 -99.5t-64.5 -123q63 4 141 9.5t150 10.5t126 10t71 7v-60.5t1 -74.5t1 -73.5v-57.5h-746q-2 20 -6 84z" />
<glyph unicode="3" horiz-adv-x="860" d="M0 1149q33 16 101.5 42t154.5 41t176 13t166 -38t126 -114.5t54 -218.5q4 -111 -28.5 -187t-98.5 -99q57 -23 99.5 -87.5t33.5 -181.5q-4 -76 -41.5 -132t-97 -95t-134.5 -60.5t-153.5 -28.5t-155.5 0t-141 28q-6 2 -7 45t-1 94q0 59 2 133q25 -10 71 -22.5t101.5 -19.5 t111.5 -7t101 13.5t74 42t29 79.5q0 47 -40 61.5t-94.5 12.5t-110.5 -12.5t-89 -12.5l-1 41t-1 92.5t1 96.5t1 55q35 -4 93 -5t113.5 11t97.5 45t44 98q2 61 -51 71.5t-129 -12t-158 -69.5t-135 -100z" />
<glyph unicode="4" horiz-adv-x="897" d="M0 1241h348q-2 -31 -5 -106.5t-6 -174t-7 -208t-8 -205.5q20 4 39.5 5t41.5 5q-2 66 -4 122t-2 99q53 0 122 -3t145 -7q-2 -25 -4.5 -72t-6.5 -108q61 8 105.5 12t56.5 4q0 -14 -1 -63t-3 -107.5t-3 -112t1 -71.5q-10 0 -58.5 -1t-119.5 -3q-4 -74 -8.5 -138.5 t-6.5 -107.5h-188q0 31 -3 95.5t-7 146.5q-63 0 -125 -1t-112 -2t-84 -2t-44 -1q2 35 -2 108.5t-9 168.5t-12 201.5t-13.5 207t-11.5 184.5t-5 135z" />
<glyph unicode="5" horiz-adv-x="768" d="M0 31q2 10 10 61t19 109q10 68 24 149q23 -12 60 -26.5t80 -24.5t87 -15t79.5 0t59 24.5t25.5 56.5q4 61 -45 88.5t-116.5 35t-138 2t-111.5 -9.5q-2 20 -5 77.5t-4 135.5t-2.5 165t-2.5 165t0 137.5t4 81.5h73.5h123t148 1t148.5 1h123h74q-2 -29 -3 -72t-3 -88 t-5.5 -86t-7.5 -65q-57 2 -113.5 8t-105.5 11t-85 9.5t-54 4.5q-8 -45 -16.5 -103.5t-12.5 -105.5q125 -6 206 -51t127 -107.5t62.5 -133.5t14.5 -128q-12 -221 -196.5 -297t-520.5 -10z" />
<glyph unicode="6" horiz-adv-x="821" d="M1.5 581q12.5 130 52.5 235.5t101.5 185t131 134t141.5 82t131 27.5q-2 -18 -3 -61t-1 -91.5t1 -93.5t1 -65q-78 0 -153.5 -34t-129.5 -120q76 29 150 21q88 -8 153.5 -43t106.5 -89.5t59.5 -126t16.5 -151.5q-4 -86 -33 -157.5t-79 -124t-116.5 -81t-142.5 -28.5 q-61 0 -120.5 17.5t-109.5 54.5t-87 93t-52 134q-31 152 -18.5 282zM248 383q-6 -53 21.5 -99.5t105.5 -50.5q61 -2 97 39t39 93.5t-29.5 98.5t-106.5 52q-49 4 -85 -38t-42 -95z" />
<glyph unicode="7" horiz-adv-x="778" d="M0 930v57v93t1 95.5t1 65.5h717q-14 -25 -40 -90.5t-55.5 -155.5t-60.5 -200.5t-57 -223.5q14 -2 25.5 -3t21.5 -1v-217q-14 0 -37.5 -1t-52.5 -3q-16 -102 -20.5 -191t8.5 -155q-29 2 -63 2t-66.5 -1t-62.5 -1h-50q-14 76 -12 158t12 170q-59 -6 -96 -6q0 20 -1 62 t-1 89v91t2 67q23 -2 63.5 -8.5t89.5 -14.5q23 86 47.5 168t48.5 156h-179t-183 -2z" />
<glyph unicode="8" horiz-adv-x="825" d="M0 369q0 41 11.5 85t31.5 85t48 74.5t59 56.5q-37 47 -60.5 108.5t-23.5 132.5q0 68 26.5 128.5t70.5 105.5t103.5 71.5t124.5 26.5q66 0 126.5 -26.5t106.5 -71.5t71.5 -105.5t21.5 -128.5q-4 -66 -31.5 -124t-62.5 -103q61 -53 102 -129t37 -164q-4 -104 -39 -179 t-90 -123t-125 -69.5t-143 -19.5q-96 2 -165 30.5t-113 78t-65.5 116t-21.5 144.5zM248 358q0 -59 34.5 -104t108.5 -49q57 -4 98 38t37 115q-4 68 -38.5 106t-100.5 38t-102.5 -42t-36.5 -102zM303 885q0 -39 21.5 -72t66.5 -33q45 2 70.5 32t26.5 66.5t-21.5 68.5 t-73.5 36q-45 2 -67.5 -28.5t-22.5 -69.5z" />
<glyph unicode="9" horiz-adv-x="835" d="M0 854q2 86 31.5 157.5t80 124t116 81t143.5 28.5q61 0 120.5 -17.5t108.5 -54t86 -94t53 -135.5q49 -227 16.5 -404.5t-117.5 -298t-210 -183t-260 -58.5v54v72t1 72.5t1 57.5q125 -25 214 34.5t134 188.5q-88 -45 -182 -37q-90 8 -154.5 43t-105.5 90.5t-60.5 127 t-15.5 151.5zM217 788.5q-2 -40.5 13.5 -75.5t49.5 -60.5t89 -29.5q37 -2 67.5 18.5t50 54t24.5 74.5t-7 77t-45 61.5t-90 27.5q-47 2 -80 -19.5t-51.5 -54.5t-20.5 -73.5z" />
<glyph unicode=":" horiz-adv-x="385" d="M16 2q0 27 1 62.5t3.5 71.5t2.5 69v51q20 0 56 1t75 1t75.5 -1t57.5 -1q4 -55 10 -128t12 -128h-71.5h-87t-82 1t-52.5 1zM16 354q0 27 1 64t3.5 72.5t2.5 67.5v50q20 0 56 1t75 1t75.5 -1t57.5 -1q4 -55 10 -128t12 -128h-71.5h-87t-82 1t-52.5 1z" />
<glyph unicode=";" horiz-adv-x="415" d="M8 -346q16 43 28.5 95t17.5 111.5t-1 127t-26 139.5h66.5t91.5 -2t89 -2h58q0 -12 -5 -48t-16.5 -84t-34 -101.5t-58.5 -101.5t-87 -85t-123 -49zM33 227q0 27 1 64t3 72.5t2 67.5v50q20 2 56 2h75t76 -1t57 -1q4 -55 10.5 -128t12.5 -128h-72h-87t-82 1t-52 1z" />
<glyph unicode="=" horiz-adv-x="686" d="M0 2v55t2 85t4 90t6 73q14 0 59.5 1t105 1h127t126.5 -1t101.5 -2t52.5 -3v-57t2 -82t3 -86t1 -70q-10 2 -52 1t-101.5 -2t-128 -2t-131 -2t-111 -1t-66.5 2zM0 426v55t2 85t4 90t6 71q14 2 59.5 2h105h127t126.5 -1t101 -2t53 -3v-56t2 -81t3 -86t1 -70h-52t-101.5 -1 t-128 -2t-131 -2t-111 -1t-66.5 2z" />
<glyph unicode="?" horiz-adv-x="944" d="M37 1083q10 47 55 109.5t111.5 119t145.5 95.5t159 43q125 6 211 -53.5t122 -151.5t13 -201.5t-115 -205.5q-78 -80 -156.5 -127t-140 -95.5t-92.5 -112t-12 -175.5q-51 -2 -123 0t-143 0q-10 135 13.5 216t65.5 131t95 80.5t102 65.5q33 23 84 65t93 88t61.5 90 t-11.5 75q-27 25 -74.5 16.5t-97 -39.5t-86 -79t-43.5 -101q-68 37 -129 77t-108 70zM63 2q0 27 1.5 62.5t3.5 71.5t2 69v51q20 0 56 1t75 1t75.5 -1t57.5 -1q4 -55 10 -128t12 -128h-71.5h-86.5t-82 1t-53 1z" />
<glyph unicode="@" horiz-adv-x="1341" d="M0 350q0 150 44 284t126 234.5t199 159.5t262 59q150 0 267.5 -59t198.5 -159.5t124 -234.5t43 -284q0 -152 -49.5 -284t-135.5 -230t-201.5 -154.5t-246.5 -56.5t-246 56.5t-201 154.5t-135 230.5t-49 283.5zM236 350q-2 -90 20.5 -174t71.5 -150.5t125 -108.5t178 -50 q104 -8 180 29.5t125 105.5t71.5 159t20.5 189q-8 215 -109.5 331t-287.5 120q-92 2 -165 -35t-123 -99.5t-77.5 -145.5t-29.5 -171zM383 199q-4 82 32 128t89 60t113.5 1t109.5 -46q0 18 1 33.5t-1 27.5q0 47 -25.5 74t-54.5 30t-52.5 -19.5t-19.5 -73.5q-35 -2 -71.5 -6.5 t-71.5 2.5q-2 39 6 90t33 97t66 78t102 32q109 -2 160 -60.5t69.5 -156t15.5 -224.5t-5 -262q-29 2 -69 -3t-95 -1v33q-49 -33 -105.5 -42t-105.5 10t-84 67.5t-37 130.5zM545 152q2 -45 22.5 -68t48 -25t54 13.5t41.5 46.5q8 16 5 36.5t-9 30.5q-16 25 -44 38.5t-54.5 11 t-46 -21.5t-17.5 -62z" />
<glyph unicode="A" horiz-adv-x="1181" d="M0 0q8 55 30.5 171t53.5 260t65.5 303t67.5 298t58.5 245.5t37.5 147.5h93.5t151.5 -1t150.5 -1h90.5q6 -29 23.5 -107.5t41 -186t52 -236.5t57 -261t56.5 -258t49.5 -227.5t35.5 -170t16 -85.5h-366q-4 14 -11.5 60.5t-17.5 107t-21.5 128t-21.5 124.5 q-66 -6 -151.5 -14t-153.5 -12q-6 -27 -12 -71t-12.5 -87t-11.5 -79t-7 -48h-344zM442 543q51 -2 104.5 -3t102.5 -3q-14 72 -28.5 141.5t-27.5 131.5t-25.5 114.5t-20.5 87.5q-8 -37 -19.5 -89.5t-26 -115t-30 -129.5t-29.5 -135z" />
<glyph unicode="B" horiz-adv-x="1167" d="M0 29q2 29 2 102.5v174v219v238.5v232.5t-1 199.5t-1 139v55q0 20 42 36.5t112 26.5q63 9 142 9h16q89 -1 182.5 -15t181.5 -45t156.5 -83t109.5 -128q39 -72 39 -170v-10q-2 -98 -42 -179.5t-114 -140.5q137 -51 202 -137q60 -80 60 -176v-15q-6 -121 -105 -199.5 t-255 -118.5q-157 -40 -347 -43h-33q-174 0 -347 28zM301 260q63 -12 131 -13h10q62 0 115 12q57 13 94 43t39 77v6q0 55 -36 84q-38 31 -94 44t-121.5 13t-114.5 -2q-6 -72 -11.5 -138.5t-11.5 -125.5zM352 840q45 -7 86 -7q16 0 32 1q56 4 96 24.5t64.5 57t26.5 92.5v6 q-1 40 -23 64q-24 26 -64 38q-37 11 -83 11h-8q-51 -1 -104 -13q-4 -63 -10.5 -133t-12.5 -141z" />
<glyph unicode="C" horiz-adv-x="1140" d="M2 486q-1 21 -1 43q-1 114 27 230q32 138 101.5 268t161.5 227q91 96 203 147q82 38 169 38q31 0 62 -5q117 -18 186.5 -77t106.5 -132.5t46 -151.5q7 -64 7 -112v-21q-37 0 -82 -2t-92 -4t-93 -4t-85 -2q-4 98 -43 128q-20 15 -42 16q-24 0 -50 -16q-52 -30 -107 -121 t-90 -237q-21 -83 -21 -149q0 -21 2 -41q8 -80 36 -128t69 -62q17 -6 34 -6q24 0 50 12q43 20 81 77.5t58 153.5q37 2 85 2h99.5t102.5 -1t94 -1q-4 -47 -20.5 -106.5t-47 -122t-76.5 -122t-105 -105.5q-60 -45 -136 -73q-71 -26 -156 -26h-12q-178 2 -290.5 69.5t-169 175 t-62.5 241.5z" />
<glyph unicode="D" horiz-adv-x="1079" d="M0 12q2 29 2 101.5v173v218.5v236.5v230t-1 196.5t-1 112v78q0 39 45 59.5t120 21.5h7q72 1 162 -19q94 -20 191.5 -64.5t189.5 -111t161 -158.5q70 -90 110 -208q33 -98 33 -216q0 -24 -1 -48q-8 -145 -67.5 -268t-181.5 -206q-121 -84 -311 -120q-107 -21 -240 -20 q-102 0 -218 12zM299 287q98 8 164.5 39.5t106.5 79t58.5 105t22.5 116.5q1 19 1 36q0 61 -16 113q-20 68 -57.5 121t-93 92t-118.5 66q-8 -86 -16.5 -184.5t-17.5 -200t-17.5 -199.5t-16.5 -184z" />
<glyph unicode="E" horiz-adv-x="907" d="M-8 0q2 41 3 146.5t2 242.5t1 293v299t-1 260t-3 178q2 0 52 1t129 2t176.5 2t191.5 1t175 -2t128 -6v-332q-20 0 -70.5 1t-116 2.5t-142.5 3.5t-150 4q-6 -59 -12.5 -124t-12.5 -132q66 4 142.5 6t133.5 8q0 -25 -1 -79t-2 -114.5t-4 -113.5t-5 -72q-23 4 -57.5 8 t-76.5 7.5t-84 6.5t-79 7q-4 -43 -8 -85t-8 -83q68 4 145.5 8t153.5 7t142 4h40q38 0 66 -1v-354h-92.5h-149.5h-178h-176h-144.5h-83.5h-24z" />
<glyph unicode="F" horiz-adv-x="684" d="M0 2q2 41 3 145.5t2 241.5t2 293q0 78 0.5 153t-0.5 147q-1 144 -1 261t-2 178q2 0 52 1t129 2t175 2h96h95q94 -1 175 -3t128 -6v-332q-20 0 -69.5 1t-116 2.5t-143 3.5t-150.5 4q-6 -59 -12.5 -123t-12.5 -131q68 2 143.5 5t133.5 9q0 -25 -1 -80t-2 -114.5 t-4.5 -112.5t-5.5 -72q-23 2 -57.5 6t-76.5 8.5t-84 7.5t-79 7q-8 -84 -15 -162t-13 -144.5t-10.5 -116.5t-6.5 -81h-272z" />
<glyph unicode="G" horiz-adv-x="1179" d="M2 486q-1 21 -1 43q0 114 27 230q33 138 102 268t161 226.5t203 147.5q83 38 169 38q31 0 62 -5q117 -18 186.5 -77t106.5 -132.5t46 -151.5q7 -64 7 -112v-21q-37 0 -82 -2t-92 -4t-93 -4t-85 -2q-4 98 -47 128q-22 16 -47 16t-55 -16q-58 -30 -117.5 -121t-94.5 -237 q-19 -76 -19 -139q0 -21 3 -41q8 -78 34.5 -127t68.5 -69q26 -12 53 -12q16 0 32 4q43 12 84 56t66 122q-37 -10 -69.5 -19.5t-53.5 -19.5q-12 47 -21 105q-5 39 -5 74q0 17 1 32q27 12 103 21t164 11h35q70 0 136 -6q83 -8 124 -33v-67t-3.5 -120t-6.5 -144.5t-7 -143 t-8 -117t-8 -61.5h-201q4 25 6 58.5t6 74.5q-66 -61 -152 -100q-81 -37 -185 -37h-11q-178 2 -290.5 69.5t-169 175t-62.5 241.5z" />
<glyph unicode="H" horiz-adv-x="1064" d="M-4 1423h366q0 -25 -4 -88t-8 -149t-11 -190.5t-13 -213.5q72 4 147.5 8t149.5 7q4 100 7 195t5 178q2 82 3 148v41q0 38 -1 64h268v-82v-142t1 -184.5t3 -209.5q31 0 57 -1t42 -3q0 -29 -2 -82t-4.5 -108.5t-4.5 -104.5t-2 -70q-25 2 -82 6v-270.5t-4 -171.5h-319 q2 47 7 170t11 283q-74 4 -151.5 5t-149.5 3q-4 -55 -6 -126t-5 -136.5t-5 -119.5t-4 -77h-285q2 41 2 146.5v242.5t-1 294t-2 300t-2 261t-3 177z" />
<glyph unicode="I" horiz-adv-x="438" d="M0 1235h365q-2 -33 -7.5 -123t-11.5 -210t-14 -256t-15.5 -262t-13.5 -229.5t-8 -154.5h-285q2 41 2 132t-1 208t-2 249t-3 256t-3 227.5t-3 162.5zM0 1268q4 41 9 72.5t9 84.5h336q2 -33 4 -75.5t7 -81.5h-365z" />
<glyph unicode="J" horiz-adv-x="1067" d="M2 676h92h107.5t104.5 -1t83 -3q-9 -65 -9 -116q0 -42 6 -76q13 -74 44 -114t71 -50q15 -3 29 -3q25 0 48 11q38 16 67 54t35 91t7 143v62q0 63 -1 132q-2 105 -7 212.5t-10 197t-8.5 146.5t-3.5 63q59 -1 120 -1h61.5h61.5q61 0 120 -1q1 -49 1 -115v-70 q-1 -110 -4 -229.5t-6 -233t-5 -193.5q-4 -102 -28 -205t-79 -185.5t-146 -136t-227 -55.5h-18q-114 0 -204 47q-97 51 -162.5 142.5t-101.5 216t-38 270.5z" />
<glyph unicode="K" horiz-adv-x="1163" d="M0 1423h401q-2 -18 -4 -60t-5 -100.5t-6 -129t-5 -150.5q63 61 135 129t139.5 129.5t124 110.5t86.5 71q12 -14 40 -50t63 -79t70.5 -88t64.5 -80q-23 -20 -91.5 -67t-157.5 -104.5t-184 -118t-171 -109.5q68 -53 156.5 -122.5t176 -136.5t161 -123t110.5 -85 q-23 -27 -53.5 -60.5t-64.5 -68.5t-68.5 -69.5t-67.5 -65.5q-20 18 -77.5 71.5t-129.5 123t-148.5 146.5t-138.5 144q-4 -59 -6 -133t-4 -143.5t-4 -124.5t-4 -80h-322q2 41 2 145.5t-2 242.5t-4 295t-4 301t-4 262t-4 177z" />
<glyph unicode="L" horiz-adv-x="864" d="M0 1427h389q-2 -25 -6 -87t-10 -150t-14.5 -194.5t-17.5 -220t-17.5 -227.5t-16.5 -214q61 6 132 11t138.5 10t126 10.5t99.5 9.5v-371q-29 -2 -93.5 -3t-145.5 -1t-170 1t-166.5 1t-137 1t-80.5 1q2 41 2 145.5t-1 242.5t-2 295t-3 301.5t-3 262t-3 176.5z" />
<glyph unicode="M" horiz-adv-x="1247" d="M0 0q6 98 15.5 232.5t19.5 279.5t19 291.5t17.5 271.5t14.5 217t8 131h361q12 -41 33.5 -103.5t46 -127t49 -122.5t41.5 -89q51 117 95 225.5t79 190.5h303q2 -27 7 -96.5t12 -166t13.5 -212t13.5 -235.5t13 -234.5t11.5 -207.5t9.5 -159t4 -86h-365q-2 45 -4 114.5 t-5 148.5t-5 161t-4 152.5t-4 123t-2 72.5q-16 -37 -40 -83t-49.5 -92l-51 -92t-46.5 -83q-29 39 -57.5 87t-54 94t-49 86t-39.5 65q-2 -53 -5.5 -124t-5.5 -149t-5 -156.5t-6 -145t-5 -115t-4 -64.5h-85h-115.5h-110h-68.5z" />
<glyph unicode="N" horiz-adv-x="1136" d="M0 2q4 100 11 232.5t15.5 274.5t15.5 285.5t14 265.5t11.5 213t6.5 130q33 -2 84 -3t105 -3t104.5 -3t81.5 -1q6 -18 29.5 -77t58 -142.5t76.5 -184t85 -201.5q0 111 -1 214.5t-1 189.5t-1 146t-3 85q41 2 98.5 2h117t111.5 -1t83 -1q-4 -49 -14.5 -162.5t-21.5 -259 t-24.5 -305t-23.5 -301t-18.5 -249t-10.5 -146.5h-282l-19 48q-20 48 -51 121t-66.5 160t-68.5 166.5t-57.5 139t-30.5 78.5q-4 -76 -10.5 -186.5t-13.5 -218t-12 -193.5t-7 -113h-371z" />
<glyph unicode="O" horiz-adv-x="1120" d="M0 711q0 147 34 278t100.5 228.5t165.5 152.5q96 53 223 53h9q147 -2 249 -58t164.5 -152.5t91 -225.5t28.5 -276t-37 -277.5t-106.5 -229t-167.5 -153.5q-92 -51 -205 -51h-17q-137 4 -237 61.5t-166 152.5t-97.5 222t-31.5 275zM326 688q0 -80 12 -148.5t37.5 -118.5 t64.5 -81t92 -33h6q44 0 80 28q39 30 66 82t41 121.5t14 149.5q0 78 -11 146.5t-35.5 121t-63.5 82t-97 31.5q-51 0 -90 -29.5t-64.5 -82t-38.5 -122t-13 -147.5z" />
<glyph unicode="P" horiz-adv-x="1101" d="M0 0q0 23 1 90.5t1 162.5v211t1 233.5t1 230v201t1 145.5t1 65q0 20 48 40t125 33q77 14 175 16h30q84 0 169 -12q100 -14 193.5 -50.5t163 -99t106.5 -156.5q26 -67 26 -153q0 -35 -4 -72q-16 -137 -71.5 -254t-147.5 -200t-219 -126q-99 -34 -216 -34q-33 0 -67 3 q-8 -92 -12 -163.5t-8 -110.5h-297zM346 618q16 -1 31 -1q51 1 95 11q58 14 102 43t71 73.5t31 101.5v8q0 44 -20 78q-22 37 -63.5 62.5t-96 39t-115.5 15.5q-8 -98 -16.5 -208t-18.5 -223z" />
<glyph unicode="Q" horiz-adv-x="1157" d="M0 713q0 147 34 278t100.5 228.5t165.5 152.5q96 53 223 53h9q147 -4 249 -60t164.5 -151.5t91 -224.5t28.5 -276q0 -123 -25.5 -231.5t-72.5 -200.5q41 -33 74 -61t53 -46q-16 -16 -41 -38.5t-51.5 -47.5t-54 -48.5t-50.5 -39.5q-10 10 -31.5 34.5t-50.5 59.5 q-59 -47 -130 -72q-61 -21 -130 -21q-11 0 -23 1q-137 4 -237 60.5t-166 151.5t-97.5 223t-31.5 276zM326 688q0 -78 12 -146.5t37.5 -119.5t64.5 -82t92 -33q39 0 74 19q-33 35 -55.5 60.5t-30.5 35.5q23 16 63 49t76 61q10 -8 23.5 -19t30.5 -26q14 45 20 96.5t6 104.5 q0 80 -11 148.5t-35.5 121t-63.5 82t-97 31.5q-51 0 -90 -29.5t-64.5 -82t-38.5 -122t-13 -149.5z" />
<glyph unicode="R" horiz-adv-x="1073" d="M-4 1374q0 20 44 36t116 22q45 4 98 4q32 0 68 -2q92 -4 188 -24.5t188.5 -58.5t164 -99.5t113.5 -147.5q40 -82 40 -191v-10q-2 -72 -30 -136.5t-75 -118.5t-114.5 -93t-149.5 -59q53 -27 106.5 -52.5t102.5 -50l90 -45t72 -37.5q-14 -27 -39 -70.5t-52.5 -90t-52 -88.5 t-38.5 -62q-25 16 -83.5 56t-133 90.5t-157.5 107.5t-157 106q-4 -37 -6 -92t-4 -109.5t-4 -98.5t-4 -62h-285q2 41 2 142.5v234.5t-1 283.5t-2 289.5t-2 253t-3 173zM342 772q68 -16 125 -18h14q48 0 86 12q43 14 69 47t30 88q1 9 1 18q-1 46 -19 81q-22 42 -60.5 70 t-94 40t-118.5 12q-6 -78 -14.5 -167t-18.5 -183z" />
<glyph unicode="S" horiz-adv-x="1134" d="M0 350q16 20 45 50t62.5 62t66.5 63.5t59 58.5q25 -43 81.5 -107.5t123.5 -116.5q66 -52 130 -74q21 -7 38 -7q38 0 64 30q18 20 2.5 42t-50 45.5t-82.5 48t-94 53.5q-37 23 -84 55.5t-95 69t-92 75.5t-75 74q-90 100 -92 217v7q0 112 60 208q62 98 174 162 q101 57 224 58q14 0 28 -1q88 -4 176 -45t165.5 -98t140 -122.5t99.5 -119.5q-27 -16 -69.5 -45.5t-91 -63.5t-97.5 -67t-86 -53q-14 14 -37.5 44t-51.5 64.5t-59.5 69.5t-61 59.5t-56.5 31.5t-47 -11q-24 -23 -24 -47q0 -14 8 -28q20 -40 66 -80t102.5 -75.5t93.5 -62.5 q86 -61 166.5 -121.5t139 -125t82.5 -137.5q11 -34 12 -71q0 -42 -15 -88q-23 -72 -93 -125q-68 -52 -164 -80q-89 -26 -193 -26h-15q-112 2 -221 39t-204.5 112.5t-158.5 198.5z" />
<glyph unicode="T" horiz-adv-x="729" d="M0 1061v362q27 2 99.5 2t169 1t206 1h209.5t181 -1t120 -3v-317q-29 -2 -107.5 -6t-183.5 -8q-6 -92 -11 -200t-11 -216.5t-12.5 -214t-10.5 -195.5t-8 -159.5t-6 -106.5h-336q1 30 1 92v71q-1 118 -4 271.5t-7 322.5t-6 316q-111 -4 -189 -7t-94 -5z" />
<glyph unicode="U" horiz-adv-x="1085" d="M3 725q-3 64 -3 136q0 239 33 566h350q0 -4 -5 -53t-12.5 -128t-13.5 -179q-6 -99 -8 -203v-52q0 -78 4 -152q6 -100 22.5 -176t46 -123.5t77.5 -47.5q47 0 75.5 46.5t45 121t20.5 169.5q3 63 3 129q0 33 -1 67q-2 100 -9 196.5t-14.5 173t-13.5 125t-6 52.5h82h95t93 1 t76 1q55 -319 55 -556q0 -45 -1 -87q-12 -264 -82 -432t-183 -244t-248 -76q-139 0 -242.5 63.5t-163 224.5t-72.5 437z" />
<glyph unicode="V" horiz-adv-x="1085" d="M0 1309q33 4 80 9t97 10t97.5 10t79.5 10q4 -37 16.5 -105.5t30 -155t36 -182.5t38 -186t35.5 -168t27 -127q14 53 34.5 142t43 191.5t45 211t42 202t34 161t18.5 91.5h358q-2 -16 -15.5 -79.5t-35 -157.5t-48 -210t-54 -238t-55 -241.5t-50.5 -220t-39 -174t-22 -102.5 h-488q-12 41 -37.5 138.5t-57.5 224t-65.5 270t-63.5 274.5t-51.5 238.5t-29.5 163.5z" />
<glyph unicode="W" horiz-adv-x="1320" d="M0 1296q39 4 92 11.5t105.5 15.5t99.5 14t78 11q4 -37 12 -108t18.5 -159t22.5 -186t22.5 -190.5t19.5 -170t15 -122.5q4 33 10.5 121t12.5 190t12 198.5t10 147.5h232q6 -35 10 -91t8 -124t7.5 -138.5t5.5 -132t5 -107.5t7 -64q8 51 24.5 139t36 192.5t41 215t40 206 t31.5 165t17 93.5h353q-2 -16 -15.5 -79.5t-33 -157.5t-44 -211t-50 -239t-51.5 -240.5t-47.5 -219t-36.5 -174t-21 -102.5h-328q-8 29 -23.5 89.5t-38.5 139.5q-16 -84 -30.5 -143t-20.5 -86h-338q-10 41 -32.5 137t-50 222t-58.5 267.5t-56.5 271.5t-46 236.5t-26.5 161.5 z" />
<glyph unicode="X" horiz-adv-x="1177" d="M2 2q8 16 47 87t91.5 170t112.5 214t116 217q-59 98 -115.5 189.5t-103 167t-80 130t-47.5 78.5q100 53 184 88t158 70q29 -53 79 -149.5t113 -216.5q59 117 110.5 215t82.5 165q78 -39 171 -90t197 -110q-14 -25 -50 -82.5t-84 -134t-105.5 -167.5t-116.5 -186 q59 -111 115.5 -216t103.5 -193t83 -152.5t54 -95.5h-321q-31 49 -90.5 144.5t-133.5 213.5q-25 -37 -55.5 -91t-60 -107.5t-54 -96.5t-34.5 -61h-367z" />
<glyph unicode="Y" horiz-adv-x="1064" d="M1 985q-1 23 -1 48q0 170 43 394h375q0 -4 -14.5 -61t-29 -141t-23.5 -181q-4 -47 -4 -90q0 -48 5 -92q10 -84 45 -139t111 -57h5q74 0 107 53q35 55 42 138q1 25 1 50q0 62 -11 131q-15 97 -34.5 182t-37 144t-17.5 63q37 0 88 -1t104.5 -1h104.5h86q57 -246 57 -426 v-12q-2 -184 -48 -311t-124.5 -201t-171.5 -104q6 -41 13.5 -89.5t13.5 -98.5t12.5 -97t12.5 -86q-35 0 -90.5 1t-115 1t-113.5 -1t-85 -1q8 78 19.5 171t27.5 198q-94 29 -173 102.5t-126 200.5t-54 313z" />
<glyph unicode="Z" horiz-adv-x="1064" d="M0 0q0 27 1 69t2 89t1 93v81q27 37 84 118.5t130 188t153 224.5t149 222q-86 -4 -171 -8t-155.5 -7t-118.5 -5t-61 -2v364h99.5t169 -1t204 -1t206 -1t175 -1h109.5q0 -18 -1 -53t-1 -79t-1 -92t-1 -93q-18 -27 -76.5 -105.5t-137.5 -184t-169 -227.5t-172 -235 q90 4 182 9.5t172 9.5t141.5 6t90.5 2v-63.5t-1.5 -100.5t-1.5 -113.5v-103.5h-1001z" />
<glyph unicode="`" horiz-adv-x="817" d="M254 1122q6 43 16.5 101.5t20.5 109.5q16 -12 57 -35.5t87 -48t85 -44t51 -23.5q-8 -31 -15 -71t-9 -50q-14 2 -54 10t-86.5 18.5t-89.5 19.5t-63 13z" />
<glyph unicode="a" horiz-adv-x="839" d="M-25 295v16q1 109 51 171q54 66 136 88q43 11 89 10q42 0 86 -8q93 -18 167 -66q0 27 1 49.5t-1 38.5q-2 70 -34 108t-68 44q-5 1 -11 1q-30 0 -54 -28q-22 -26 -22 -77q0 -15 2 -32q-18 0 -54 -1t-74.5 -2t-75.5 -2t-62 -1q-1 13 -1 27q0 47 10 102q14 72 50.5 136.5 t98.5 111.5t158 55q26 2 50 2q85 0 145 -28q76 -36 119.5 -107.5t61 -171.5t20.5 -219q1 -45 1 -91q0 -77 -3 -159q-5 -131 -5 -262h-273q-2 8 -2 20.5v28.5q-73 -47 -159 -58q-24 -3 -48 -3q-59 0 -113 20q-75 28 -127 98t-59 189zM223 252q2 -41 33 -61.5t71 -23.5h13 l67 12q40 15 60 46q14 18 14 37t-10 31q-23 27 -66 43q-38 14 -74 14h-9q-40 -2 -72 -26q-27 -21 -27 -61v-11z" />
<glyph unicode="b" horiz-adv-x="1013" d="M16 2q0 47 2 154.5t4.5 245t6.5 287t6 281.5t4 231t2 134h350q-10 -115 -17 -203t-13.5 -153.5t-10.5 -110t-10 -75.5q46 67 110 97q58 27 118 27q6 -1 14 -1q68 -4 136 -39t120 -103t78 -168q18 -68 18 -151q0 -37 -4 -78q-10 -123 -54.5 -205t-105.5 -126t-132 -53 q-22 -3 -43 -3q-49 0 -95 14q-68 20 -122 67.5t-83 114.5q-2 -16 -4 -39.5t-4 -50t-4 -52.5t-4 -42h-263zM424 371q-2 -19 -3 -37q-1 -56 25 -90q32 -46 79 -56q13 -3 26 -3q33 0 65 19q44 26 60 85q10 45 10 81q0 21 -3 39q-9 50 -35.5 78.5t-62.5 36.5q-13 3 -26 3 q-22 0 -44 -9q-34 -14 -59.5 -51t-31.5 -96z" />
<glyph unicode="c" horiz-adv-x="888" d="M2 542q12 100 54 193.5t110 163.5q68 69 162 105q68 25 148 26q32 0 65 -4q80 -10 130 -53t77.5 -98.5t35.5 -112.5q7 -46 7 -80v-16q-23 -6 -61 -13.5t-79 -13.5t-80 -12t-61 -11q-2 66 -37 92q-23 18 -51 18q-14 0 -28 -4q-44 -13 -82 -69.5t-46 -156.5q-2 -20 -2 -38 q0 -70 24 -120q30 -62 76 -79q16 -6 33 -6q29 -1 59 19q46 30 72 119q39 3 86 3q23 0 48 -1q75 -2 145 -2q-4 -49 -26.5 -116.5t-69.5 -128t-123 -103.5t-185 -43q-117 0 -198.5 47t-130.5 124q-48 77 -66 174q-10 58 -11 116q0 40 5 81z" />
<glyph unicode="d" horiz-adv-x="1024" d="M0 354q0 139 36 246t91 178.5t126 106.5q66 33 132 32q5 1 9 1q70 -2 134 -45.5t109 -127.5q0 66 -1 154t-1 174v158v104h334q0 -35 -4 -133t-10.5 -230t-14.5 -281.5t-16.5 -287t-15.5 -245t-11 -156.5h-276q-3 35 -3 83v9q0 44 5 86q-25 -78 -81 -124t-124 -61 q-34 -8 -70 -7q-34 0 -72 7q-74 15 -136 60t-101 120t-39 179zM264 309q12 -67 56 -99q35 -25 73 -25q10 -1 21 1q49 8 88 57.5t39 141.5q0 68 -23.5 106.5t-58.5 54.5q-22 10 -46 9q-14 0 -28 -3q-39 -9 -69 -40q-32 -31 -48 -82q-10 -30 -9 -65q0 -27 5 -56z" />
<glyph unicode="e" d="M-1 459q-1 22 -1 44q0 110 37 234q25 76 67.5 133.5t97.5 93.5q56 36 118 52q45 11 89 12q17 0 33 -2q150 -14 223.5 -111.5t73.5 -246.5q0 -74 -26.5 -139.5t-72.5 -114.5t-110.5 -78t-138.5 -29q-31 0 -60.5 5t-58.5 16q45 -66 112 -84q33 -9 65 -8q35 0 67 10 q64 18 116 68t70 122q12 -25 27.5 -55.5t30 -59t26 -53t17.5 -39.5q-23 -45 -64 -90t-97 -79q-56 -32 -126 -50q-45 -11 -93 -12q-28 0 -56 4q-98 12 -179.5 72.5t-129.5 158t-57 226.5zM272 610q4 -62 44 -88q37 -25 86 -24h8q59 2 100 41q34 33 34 88q0 11 -1 22 q-7 59 -51 81q-38 19 -79 19q-8 0 -16 -1q-51 -4 -90 -38q-35 -31 -35 -88v-12z" />
<glyph unicode="f" horiz-adv-x="819" d="M2 297v47v62.5v60.5v41q10 0 64 6q-14 207 -14 358q-1 5 -1 9q0 146 17 233q25 131 88 219t143 131q76 41 159 41h8q87 -2 159.5 -48t119 -137t46.5 -226q0 -76 -8.5 -146.5t-20.5 -134t-26.5 -115t-28.5 -88.5q-16 2 -54.5 5t-80.5 8.5t-80.5 9.5t-59.5 8 q18 66 36.5 152t25.5 161q2 25 2 48q0 43 -8 77q-12 46 -47 46q-4 0 -9 -1q-35 -4 -55.5 -56t-29.5 -135t-9 -186.5t6 -209.5q98 8 181 14t116 6q-2 -27 -5 -61.5t-6 -69.5t-7.5 -66.5t-8.5 -52.5q-23 -2 -93 -2t-161 -2q10 -115 17.5 -197.5t9.5 -105.5h-281 q-8 80 -14 154.5t-12 146.5q-25 -2 -44.5 -2t-33.5 -2z" />
<glyph unicode="g" horiz-adv-x="956" d="M-2 502q2 121 35 220t92 170t142 106q68 29 150 29q19 0 38 -1q86 -8 155 -47v49q25 0 65 -1t84 -1t83 1t59 1q-2 -31 -7 -120t-12.5 -201.5t-15.5 -230.5t-16 -204q-16 -201 -40 -356.5t-73 -262t-134 -160.5t-226 -54q-72 0 -137.5 27.5t-115.5 83t-82 139.5t-38 194 q18 2 52 4t72 5.5t77 5.5t67 4q-4 -25 2.5 -60t22.5 -65.5t45 -52t70 -21.5q39 0 64.5 23.5t43 64.5t26.5 98.5t15 122.5q-51 -14 -104 -14h-13q-127 2 -213 46t-138 114.5t-75 161.5q-20 83 -20 167v15zM252 463q-1 -13 -1 -26q0 -61 17 -107q19 -54 51.5 -84.5t72.5 -39.5 q16 -4 31 -4q24 0 47 9q38 14 67.5 49t40.5 90q4 57 6 114.5t6 117.5q-10 106 -62 153q-40 37 -85 37q-13 0 -25 -3q-60 -13 -109 -90t-57 -216z" />
<glyph unicode="h" horiz-adv-x="897" d="M-3 1218v54q0 46 1 61h373q-4 -35 -15.5 -119t-22.5 -181t-22.5 -190t-15.5 -147q39 90 115 134q65 37 134 37q12 0 25 -1q82 -8 152.5 -71.5t99.5 -186.5q18 -76 18 -169q-1 -3 -1 -5q0 -96 -11.5 -190t-29 -179t-31.5 -143q-18 0 -57 -1t-83 -1t-86 1t-69 1 q10 47 23.5 109.5t22.5 130.5t12 134q1 20 1 38q0 44 -5 80q-7 52 -27.5 86.5t-57.5 38.5h-4q-34 0 -58 -30q-26 -32 -43.5 -82t-26.5 -113.5t-13 -124t-5 -110.5t-1 -77h-281q1 37 1 100v69q-1 114 -2 254t-3 290.5t-4 280.5t-3 222z" />
<glyph unicode="i" horiz-adv-x="391" d="M0 1051q14 0 60 -1t100.5 -1h103.5h72q-4 -29 -8.5 -65t-12.5 -69q-23 0 -65.5 1.5t-90.5 1.5h-89h-56q-2 41 -6 69.5t-8 63.5zM12 856h65.5h92.5h90h62q-2 -16 -5.5 -78.5t-8.5 -148.5t-11 -184.5t-11 -188.5t-9.5 -159.5t-6.5 -96.5h-231q0 33 -2 102.5t-5 156.5 t-6 182.5t-6.5 180.5t-5.5 147t-2 87z" />
<glyph unicode="j" horiz-adv-x="419" d="M-537 -115q18 2 52 4t73 4.5t78 4.5t68 4q-4 -25 1 -58.5t22.5 -64.5t45 -52.5t70.5 -21.5h4q54 0 84 47q31 49 46.5 124t20.5 163t11 166q4 61 5 153.5t1 187.5v182t2 142h297q-2 -20 -3 -95t-4 -182.5t-10.5 -234.5t-18.5 -250.5t-29.5 -231t-42.5 -175.5 q-53 -141 -148 -205q-85 -58 -217 -58q-16 0 -33 1q-72 4 -137.5 32.5t-116.5 83t-82.5 137.5t-38.5 193zM29 1051q14 0 60 -1t100.5 -1h103.5h72q0 -29 -7.5 -67t-13.5 -67q-23 0 -65.5 1.5t-91 1.5h-89.5h-55q-2 41 -6 68.5t-8 64.5z" />
<glyph unicode="k" horiz-adv-x="847" d="M1 1216v55q0 46 1 62h371q-2 -18 -6.5 -79.5t-10.5 -150.5t-13 -198.5t-13 -222.5q47 39 108.5 83t120.5 86t110.5 76t80.5 56q6 -47 9 -110.5t4 -127t3 -120t4 -86.5q-59 -23 -151.5 -53.5t-178.5 -59.5q39 -18 81 -33.5t82 -28t76 -21.5t62 -15q2 -20 4.5 -65.5 t5.5 -96.5t6 -97t5 -69q-66 2 -131.5 20.5t-125 48t-111.5 66.5t-91 76q-4 -82 -6 -138.5t-2 -72.5h-281q1 37 1 100v69q-1 114 -3 254t-5 290.5t-4 280.5t-2 222z" />
<glyph unicode="l" horiz-adv-x="724" d="M0 0v1333h367q-2 -16 -6.5 -72.5t-10.5 -139.5t-12 -185t-12.5 -211t-13.5 -216.5t-11 -201.5q39 2 91 6t101.5 7.5t90.5 6.5t59 5q0 -31 -2 -77t-4 -94t-4 -91t-4 -70h-629z" />
<glyph unicode="m" horiz-adv-x="1394" d="M0 0v1028h330q-2 -18 -6 -88q48 56 114 78q37 12 73 13q29 0 57 -8q64 -17 117.5 -73.5t82.5 -154.5q61 125 140 182q69 50 137 50q10 0 19 -1q77 -8 140 -82t92 -209q20 -91 22 -193q0 -12 -1 -23q1 -90 -9 -178q-12 -99 -29 -188.5t-34 -152.5h-303q12 53 28.5 121.5 t29 141.5t20.5 143q5 46 5 86q0 20 -1 40q-4 56 -20.5 95t-53.5 47q-14 4 -27 4q-42 0 -74 -39q-42 -51 -52 -156q-4 -137 -21.5 -266t-40.5 -217h-313q12 53 26.5 120.5t24.5 138.5q11 71 15 139q2 28 1 53q1 37 -3 69q-6 55 -25 92t-53 45q-10 3 -20 3q-27 0 -48 -22 q-29 -28 -45 -91q-6 -94 -13.5 -186.5t-12.5 -168t-9 -128t-4 -64.5h-256z" />
<glyph unicode="n" horiz-adv-x="894" d="M0 0v1028h330q-4 -27 -11 -141q59 87 133 121q48 22 94 22q25 0 49 -6q69 -18 124 -85.5t78 -182.5q16 -86 18 -190q0 -21 1 -42q0 -84 -7 -168q-8 -104 -23.5 -198.5t-31.5 -157.5h-316q10 47 24.5 113.5t26 139.5t17.5 145q4 43 4 80q0 26 -2 48q-4 56 -23.5 90.5 t-56.5 34.5q-45 -2 -83 -58t-56 -126q-6 -84 -11.5 -163t-10.5 -142.5t-8 -106.5t-3 -55h-256z" />
<glyph unicode="o" d="M0 518q0 106 24.5 201.5t73.5 166t123 111.5q71 39 161 39h9q109 -2 183.5 -43t121.5 -111.5t67.5 -163.5t20.5 -200q0 -109 -27.5 -204t-78.5 -165.5t-124 -111.5q-67 -37 -147 -37h-16q-100 2 -174 44t-122 110.5t-71.5 162t-23.5 201.5zM262 487q-7 -39 -7 -73 q-1 -44 11 -80q20 -64 88 -88q18 -6 34 -6q40 0 74 33q48 47 66 135q7 41 7 76q0 41 -10 73q-19 59 -91 82q-23 8 -44 8q-38 0 -66 -27q-44 -42 -62 -133z" />
<glyph unicode="p" horiz-adv-x="956" d="M-12 -492q4 86 7 199t6 242t4 268t1 279.5t-2 275.5t-6 256h58h90.5h91.5h61q0 -10 1 -29.5t1 -48.5q51 20 125 27q24 2 47 2q176 0 282 -109q120 -122 124 -364v-16q0 -84 -19 -166q-22 -91 -74.5 -161.5t-139.5 -114.5t-214 -46h-11q-75 0 -140 27 q-6 -160 -12.5 -297.5t-12.5 -223.5h-268zM291 352q10 -55 42 -90t71 -47q24 -7 49 -7q17 0 34 3q43 8 77 40t52 85q13 37 13 86q0 21 -2 45q-10 96 -56.5 147.5t-100.5 61.5q-14 3 -28 3q-39 0 -78 -21q-51 -29 -69 -93q-2 -51 -3 -104.5t-1 -108.5z" />
<glyph unicode="q" horiz-adv-x="962" d="M0 506q4 244 125 366q107 109 281 109q23 0 47 -2q74 -6 133 -31q0 23 -1 42.5t-1 39.5h58h90h91.5h61.5q1 -12 1 -43v-35q-1 -61 -2 -150t-3 -202t-5.5 -235.5t-7.5 -246.5t-8 -237.5t-9 -210t-11 -162.5h-60.5h-82.5h-76.5h-47.5q4 100 7.5 232.5t7.5 284.5 q-63 -23 -142 -23q-127 2 -213 47t-138 116t-75 160q-20 82 -20 166v15zM254 467q-2 -23 -2 -43q0 -51 14 -89q19 -54 52.5 -85t77.5 -39q16 -3 31 -3q28 0 53 9q40 14 71 50t41 93v205q-10 55 -60 85q-41 24 -87 24q-11 0 -22 -1q-58 -7 -108.5 -56.5t-60.5 -149.5z" />
<glyph unicode="r" horiz-adv-x="933" d="M0 0q2 33 3 119t2 194.5t2 228.5q0 60 0.5 116t-0.5 107q-1 103 -1 176t-2 87h340q-2 -16 -6 -66.5t-8 -121.5q35 74 86 119q52 45 110 61q31 9 62 9q27 0 55 -7q59 -14 107.5 -59t82 -123t39.5 -187q-59 -35 -112 -69q-47 -29 -98.5 -60.5t-88.5 -54.5q5 34 5 65 q0 19 -2 37q-5 47 -18 82t-33.5 55.5t-43.5 22.5h-5q-28 1 -54 -19q-28 -22 -52 -58t-42.5 -83t-26.5 -96q-6 -86 -13 -168t-11.5 -147.5t-8.5 -108.5t-4 -51h-264z" />
<glyph unicode="s" horiz-adv-x="856" d="M-29 233q16 51 45 121t56 121q63 -135 150 -189.5t171 -62.5q49 0 76 12.5t30 30t-18.5 33.5t-72.5 23q-37 4 -80 18t-86 38.5t-81 61.5t-63 88q-34 69 -34 154v7q2 89 39.5 166t116.5 128q71 46 177 45h25q68 -4 131 -39t115.5 -84t87.5 -104.5t47 -95.5 q-16 -12 -46 -32t-64 -43.5t-67.5 -46t-58.5 -40.5q-20 66 -54 107q-33 42 -67 62q-29 17 -56 16h-8q-30 -3 -42 -26q-16 -31 -7 -58.5t37.5 -51t76 -42t106.5 -28.5q129 -23 193 -89q51 -53 50 -147q0 -24 -3 -50q-10 -76 -61.5 -127.5t-126.5 -79t-165 -29.5h-13 q-83 0 -165 24q-88 26 -165 77t-126 132z" />
<glyph unicode="t" horiz-adv-x="423" d="M-92 1083v230q23 0 43 1t59 3v192h76h103.5h106.5h85q0 -4 -1 -26.5t-2 -51l-2 -57t-1 -43.5h51h62.5t59.5 1t40 3q-2 -29 -6 -62.5t-10.5 -68.5t-11.5 -66.5t-11 -54.5h-191q-6 -106 -12 -223t-12 -231.5t-11.5 -221t-10.5 -190.5t-7 -142.5t-2 -74.5h-280q1 39 1 106 v74q-1 121 -3.5 272.5t-4.5 317.5t-4 313h-104z" />
<glyph unicode="u" horiz-adv-x="927" d="M6 480q-1 21 0 42q0 81 8 160q10 100 24.5 191.5t29.5 156.5h292q-23 -84 -41 -174t-28 -177t-11 -164q0 -6 -1 -13q0 -70 11 -124q11 -60 37.5 -94t69.5 -34q29 0 53.5 22.5t43 60.5t31 86t18.5 97q0 90 -1 176t-2 157t-1 120v61h309q0 -18 -5 -96t-11.5 -187.5 t-12.5 -233.5t-12 -231.5t-11 -185.5t-5 -94h-246v178q-43 -96 -118 -142q-61 -37 -123 -37q-14 0 -30 2q-78 11 -147.5 81t-99.5 205q-19 89 -21 191z" />
<glyph unicode="v" horiz-adv-x="849" d="M2 918h315q6 -35 15.5 -118t21 -179.5t21.5 -189.5t18 -150q8 51 18.5 121.5t20.5 148.5t20.5 156.5t18.5 144.5t14.5 113t10.5 63h307q-2 -14 -15.5 -89t-34 -180.5t-44 -227t-45 -231.5t-38 -192.5t-22.5 -107.5h-411q-8 27 -24.5 95.5t-36 158.5t-40 191.5t-39 194.5 t-32 167t-19.5 111z" />
<glyph unicode="w" horiz-adv-x="1024" d="M2 918h346q2 -39 5 -115t7.5 -161t8.5 -168t8 -136q2 23 10 69t17.5 98t17.5 101t12 80h125q2 -29 8 -80t11.5 -105.5t10.5 -99.5t9 -63q2 37 4 98.5t6 132t7 145t6.5 139.5t5.5 112t2 63h336q-2 -14 -10.5 -89t-19.5 -180.5t-24.5 -227t-26 -231.5t-21.5 -192.5 t-13 -107.5h-295q-16 37 -31.5 103.5t-31.5 125.5q-14 -57 -32 -122.5t-34 -106.5h-309q-4 18 -12.5 78.5t-19.5 145.5t-22.5 184.5t-22.5 195.5t-21.5 179t-16.5 135z" />
<glyph unicode="x" horiz-adv-x="1081" d="M29 193q14 18 41.5 47.5t62.5 69.5t76 87t86 99q-92 98 -164 173.5t-96 102.5q27 25 65.5 59.5t79.5 70.5t79 69t63 55q31 -39 88 -106.5t127 -149.5q78 92 139 160.5t84 95.5q20 -27 57 -71t74 -90t69 -86t46 -58q-37 -35 -98.5 -93.5t-135.5 -129.5q82 -94 145.5 -168 t88.5 -103q-16 -16 -50 -49t-71 -68.5t-69 -66.5t-46 -43q-33 33 -99.5 101.5t-148.5 154.5q-49 -49 -94 -92t-80 -77t-58.5 -57.5l-29.5 -29.5q-14 12 -45 37.5t-66.5 54.5t-68.5 56.5t-51 44.5z" />
<glyph unicode="y" horiz-adv-x="894" d="M-47 -115q18 2 52 4t73 4.5t78 4.5t67 4q-4 -25 1 -58.5t21.5 -64.5t45 -52.5t69.5 -21.5q47 0 76 35t45.5 93t23.5 137t11 167q-47 -80 -120 -115q-49 -23 -99 -23q-24 0 -47 5q-74 16 -137.5 85t-92.5 198q-18 88 -20 191v37q0 83 7 165q9 100 24.5 190.5t29.5 155.5 h293q-23 -84 -41 -174t-28.5 -176t-11.5 -163v-12q0 -70 11 -125q11 -59 37.5 -93.5t69.5 -34.5q27 -2 50.5 18.5t42 55t31.5 79.5t20 93q4 80 8 159.5t7 150t6 129t5 95.5q25 0 65 -1t83 -1t81.5 1t59.5 3q-2 -31 -7 -120t-12.5 -202.5t-15.5 -230.5t-14 -203 q-16 -203 -40 -358.5t-73 -261t-134 -160.5t-226 -55q-72 0 -137.5 27.5t-116.5 84t-83 140.5t-38 194z" />
<glyph unicode="z" horiz-adv-x="854" d="M0 698v330h793q0 -18 -1 -51t-3.5 -70t-4.5 -72.5t-2 -60.5q-35 -47 -76.5 -107.5t-90 -125t-98.5 -129t-99 -121.5q102 25 197.5 45t158.5 29v-63.5t-1 -112t-2 -115t-1 -74.5h-760q-2 29 -3 89.5t-1 107.5q23 20 72 80.5t110.5 139.5t128 166t121.5 158 q-68 -6 -135 -13t-126.5 -13t-105.5 -10.5t-71 -6.5z" />
<glyph unicode="&#xa1;" horiz-adv-x="485" d="M39 -512q2 29 5.5 103.5t7.5 174t8 213t8 219t9 191.5t7 131h258q-2 -35 -2 -111.5v-174t1 -206t3.5 -211.5t3.5 -189.5t3 -139.5h-312zM78 842q16 0 53 1t81 1h87h72q-6 -55 -12 -128t-10 -128q-20 0 -57.5 -1t-76 -1t-75 1t-56.5 1v51t-2 69t-3 71.5t-1 62.5z" />
<glyph unicode="&#xa2;" horiz-adv-x="591" d="M51 760.5q6 62.5 30.5 119t65.5 99.5t99 59q4 29 5 48.5t3 29.5q14 2 36.5 -5t43.5 -17q0 -6 -1 -17.5t-3 -27.5q4 -2 16 -2q43 -6 70.5 -31t42 -56.5t19.5 -64.5t3 -55q-12 -4 -32.5 -8.5t-43 -8.5t-44 -7t-33.5 -5q0 33 -17 49q-8 -61 -14 -127.5t-14 -128.5 q16 6 31.5 24.5t25.5 53.5q31 2 72 1t80 -1q-2 -29 -14.5 -68t-39 -73.5t-67.5 -59t-101 -24.5h-4q-4 -29 -5 -46.5t-3 -25.5q-14 4 -34.5 1t-43.5 -1q0 8 2 29.5t6 56.5q-53 20 -85.5 65.5t-45 103.5t-6.5 120.5zM195 741q-2 -53 12 -90q4 47 9 93.5t9 93.5 q-24 -36 -30 -97z" />
<glyph unicode="&#xa8;" horiz-adv-x="870" d="M190 1317q10 -2 39 -2t64 -1t68.5 -1t54.5 -2q2 -18 2 -49v-66t-1 -69.5t-1 -63.5q-16 -2 -45 -2t-59.5 1t-57.5 2t-39 5q0 18 -3 49t-7 66t-8.5 69.5t-6.5 63.5zM440 1188q0 35 1 66t3 49q20 2 53 2t68 1t63.5 1t39.5 2q-2 -29 -5.5 -64t-7.5 -69.5t-7 -65.5t-3 -49 q-12 -4 -39.5 -6t-58.5 -3t-59.5 0t-45.5 3q0 29 -1 63.5t-1 69.5z" />
<glyph unicode="&#xa9;" horiz-adv-x="1581" d="M152 1077q-10 43 2 92.5t55 83.5q20 16 42.5 28.5t43.5 23.5q23 12 48.5 27.5t31.5 56.5v14v8q8 -8 23.5 -31.5t7.5 -44.5q-4 -10 -20.5 -22.5t-31.5 -22.5q-20 -14 -44.5 -29.5t-46 -33t-34 -38t-8.5 -46.5q2 -18 13.5 -28.5t25.5 -13.5t30.5 -2t28.5 3q41 8 70 31.5 t51.5 51t43 57.5t44.5 52q23 18 48.5 37t54.5 25q31 8 67.5 7t71.5 -13.5t64.5 -37t48.5 -65.5q23 -43 3 -86t-55 -88q-12 -16 -22 -27.5t-4 -29.5q4 -16 18.5 -24.5t24.5 -10.5q53 -10 115 23q35 18 74.5 42.5t74.5 18.5q18 -4 42 -14.5t45.5 -26.5t37.5 -37.5t20 -44.5 q8 -47 -4 -89t-12 -81q0 -10 7 -20.5t14.5 -21.5t13.5 -22.5t6 -21.5q0 -12 -14.5 -22.5t-12.5 -22.5q2 -10 8.5 -18.5t10.5 -16.5q4 -14 -11.5 -30.5t-11.5 -24.5q10 -18 21.5 -28.5t1.5 -28.5q-12 -16 -17 -45q66 37 101 62.5t45 66.5q2 8 0 16t-6 12q-6 4 -13.5 1 t-11.5 -11q-2 -6 -5 -15.5t-7 -9.5q-10 0 -7 17.5t7 23.5q10 20 28.5 20t28.5 -14q8 -10 8 -23t-4 -26.5t-10 -25t-12 -17.5q-10 -12 -25.5 -24.5t-32.5 -22.5q-16 -10 -37.5 -23.5t-46.5 -25.5q2 -4 3 -12q18 12 37.5 10t35.5 -16q18 -20 18.5 -45t-12 -44.5t-33 -28.5 t-44.5 1q-6 -25 -22.5 -45.5t-40 -35.5t-51.5 -25.5t-52 -14.5q-41 -10 -85 -12t-85 0q-57 4 -96 25.5t-62 56.5q-10 -16 -23.5 -25.5t-33.5 -13.5q-37 -6 -54.5 16.5t-18.5 52t15.5 54t48.5 22.5q-2 10 -3 20.5t-5 20.5q-33 10 -62.5 22.5t-56.5 28.5q-25 20 -22 47 q2 16 14.5 25.5t26.5 8.5t25.5 -11t13.5 -31q-2 -10 -7 -5l-13.5 13.5t-18.5 12.5t-19 -6q-10 -10 -1.5 -22.5t24.5 -22.5q37 -23 86 -37q-4 8 -4 12q16 4 16 17.5t-12 23.5q-10 8 -23.5 12t-17.5 15q-4 10 2 18t13.5 15.5t12.5 16.5t-1 19t-16.5 16.5t-21.5 12.5t-20.5 14 t-15.5 21q-4 18 4 31.5t21 29.5q14 20 7 34.5t-23.5 26t-36 20.5t-29.5 19q-33 35 -35 80t16 80q6 12 19.5 24.5t26 27t16.5 28.5t-9 27q-8 12 -24 10q-31 -6 -56.5 -27.5t-54.5 -38.5q-43 -29 -90 -29.5t-88 9.5q-31 10 -65.5 33.5t-42.5 64.5zM162 1141q-4 -33 4 -68 t43 -57q45 -29 106.5 -33t110.5 27q16 8 36.5 23.5t42 27.5t41 15t34.5 -11q14 -16 13 -31.5t-11.5 -30t-23.5 -27.5t-21 -26q-18 -29 -19.5 -74t33.5 -79q8 -8 23.5 -16.5t31 -17.5t26.5 -21.5t11 -30.5q0 -10 -6 -19.5t-14.5 -18.5t-13.5 -18.5t-3 -19.5q4 -16 21.5 -26.5 t29.5 -16.5q0 41 31 80t72 57q14 6 25.5 10t29.5 2q43 -6 84 -17t82 -46q-6 47 -21.5 90t-56.5 74q-33 25 -68.5 19.5t-74.5 -9.5q-49 -6 -88 0q-29 8 -45.5 37t-14.5 57q2 27 18.5 51.5t39 47t44 46t31.5 46.5q16 39 6 72.5t-20 43.5q-23 23 -49.5 36.5t-54.5 4.5 q-20 -4 -46 -18t-51.5 -32.5t-47 -38t-33.5 -34.5q-29 -33 -68 -57t-78 -29q-12 -2 -31.5 -2t-29.5 7q-16 10 -25.5 26.5t-11.5 30.5q0 33 17.5 56.5t44 43t57 36.5t53.5 38q16 16 21 29.5t-15 38.5q2 -29 -15.5 -48.5t-45 -35t-58.5 -32t-55 -38.5q-43 -41 -47 -94z M473 1206l52.5 42t57 36t58.5 17.5t57 -13.5q18 -10 42 -33.5t22 -78.5q-2 -27 -16.5 -50.5t-34 -45t-41 -43t-35.5 -46.5q-4 -6 -10.5 -19.5t-6.5 -23.5q-2 -16 4.5 -37.5t16.5 -31.5q6 -8 19.5 -14.5t23.5 -8.5q25 -4 55.5 0t59.5 8q16 4 37.5 5t35.5 -3q29 -8 50.5 -28.5 t35 -48t22.5 -59.5t13 -62q8 35 23.5 69.5t33 64t31 51t19.5 30.5q12 20 30.5 38.5t39 27.5t40 6t35.5 -27q-2 16 -5 30.5t-13 24.5q-14 18 -43 35.5t-54 28.5q-43 14 -96 -17q-41 -25 -87 -46t-93 -17q-16 2 -37.5 14t-28.5 39q-4 16 10.5 32.5t24.5 28.5q23 29 43.5 65 t16.5 66q-4 35 -25.5 60.5t-50.5 42t-60.5 25t-56.5 8.5q-27 0 -53 -6.5t-51 -22.5q-35 -25 -63.5 -52.5t-47.5 -60.5zM655.5 503q-0.5 -5 6 -9.5t15.5 -8.5t15 -10q27 -23 13 -49q-2 -6 -9 -6q4 -8 4 -10q12 -4 23.5 -6.5t24.5 -6.5q2 49 14 97.5t43 93.5q-35 35 -37 73.5 t20 69.5q-47 -10 -80.5 -47t-41.5 -74q-4 -14 1 -21t11 -18q10 -16 4 -29.5t-16 -23.5t-10.5 -15zM656 272.5q1 -16.5 10 -28.5q10 -16 30.5 -19.5t34.5 6.5q8 4 17.5 13.5t17.5 23.5q2 4 6 -5t8 -13q25 -29 59.5 -46.5t84.5 -21.5q80 -6 158.5 7.5t131.5 54.5 q10 10 22.5 26.5t12.5 36.5q0 10 -4 20.5t-8 20.5q-4 16 -6 23l-4 20t-4 21q-33 -18 -66 -34t-61 -30q-12 -6 -16.5 -1t7.5 13q33 16 66 33t68 35q0 12 -1 23.5t-3 23.5v19.5t-3 19.5q0 8 -1 18.5t-3 20.5q0 10 -2 20.5t-6 20.5q-6 16 -19.5 25.5t-23.5 19.5q14 8 18.5 21.5 t1.5 29t-10.5 31.5t-13.5 31q-29 -16 -53.5 -34t-52.5 -40q-10 -8 -21.5 -16.5t-17.5 -14.5q-10 -6 -23 6q-25 31 -65.5 48.5t-73.5 25.5q-29 6 -39 3t-21 -21q-14 -29 -3.5 -60t32.5 -61q-33 -43 -43 -92.5t-14 -102.5q6 -2 11 -2t11 -2q41 -10 98.5 -17t110.5 -18 q16 -4 17.5 -9t-11.5 -7q-57 8 -117.5 16t-119.5 21q0 -4 -1 -8.5t-1 -8.5q0 -10 1 -30.5t-5 -24.5t-21.5 3t-19.5 13t-6 19q-18 0 -29.5 -9.5t-17 -24.5t-4.5 -31.5zM678 268q-6 14 1 24.5t19.5 13.5t24.5 -1t16 -18q-12 -4 -23 -9.5t-11 -29.5q-8 12 0 25.5t16 17.5 q-10 14 -27.5 4.5t-15.5 -27.5zM709 387q4 -14 6 -28.5t6 -28.5q8 -12 24 -13v62q-10 2 -18 4t-18 4zM725 100q0 12 8 25q8 8 19 8q4 0 12 -4q2 0 8 -6v22q0 6 2 9q2 2 6 2t4 -2q2 -2 2 -7v-69q0 -6 -2 -6q-2 -2 -4 -2q-4 0 -6 2t-2 6v2l-6 -6q-2 -2 -3 -2t-3 -2h-8 q-8 0 -11 2q-4 2 -8 6q-2 4 -3 5t-3 5q0 4 -1 6t-1 6zM741 100q0 -8 2 -10q2 -6 7 -6q2 -2 6 -2q6 0 8 2q2 0 6 6q0 2 1 4t1 6t-1 6.5t-1 4.5q-2 4 -6 8q-2 2 -8 2q-4 0 -8 -2q-4 -4 -5 -8q-2 -2 -2 -11zM799 100q0 8 4 17q2 4 4 6l6 6q4 2 8 3t10 1q4 0 5.5 -1t5.5 -1l8 -4 l6 -6q0 -2 1 -3t1 -3t-1 -3t-1 -3q-2 0 -3 -1.5t-3 -1.5l-2 3l-4 4l-6 6q-2 0 -3 1t-6 1q-8 0 -10 -6q-4 -8 -4 -15v-8q2 -2 2 -3t2 -3l4 -4q2 0 3 -1t5 -1q2 0 3.5 1t3.5 1q6 2 6 8l4 4h4q4 0 4 -2q2 0 2 -4t-2 -6q0 -2 -4 -6q-8 -4 -10 -4q-4 -2 -13 -2q-14 0 -22 8 q-8 12 -8 22zM821 522q8 16 39 25.5t55 9.5q8 -2 19.5 -5t15.5 -7t3 -15.5t-5 -15.5q16 -16 13 -43t-19 -43q-16 -18 -45 -30.5t-51 -8.5q16 4 30.5 8t24.5 15q-31 -4 -53.5 14t-13.5 53q10 33 47 47q-16 0 -31.5 -2t-28.5 -2zM850 485q-12 -31 3 -47t38 -18q20 0 35.5 11 t21.5 26.5t3 31t-17 23.5q-8 4 -10 4q-4 2 -17 2q-18 0 -34.5 -9t-22.5 -24zM868 100q0 10 2 13q4 8 7 10q2 6 10 6q8 4 12 4t12 -4q7 0 11 -6q2 -2 6 -10q2 -4 2 -13q0 -8 -2 -12q-4 -8 -6 -10q-6 -6 -11 -6q-4 -2 -12 -2t-12 2q-8 4 -10 6t-7 10q-2 4 -2 12zM885 90 q2 -4 6 -8q2 0 3 -1t5 -1q6 0 12 6q4 8 4 14q0 10 -4 15q-6 6 -12 6t-8 -2q-4 -4 -6 -8v-11v-10zM901 467q0 12 14 12t11 -14q0 -14 -13 -10q-12 0 -12 12zM918 471q0 4 4 4t4 -4t-4 -4t-4 4zM934 76q2 0 2 2t2 4l14 20l-12 17q-4 4 -4 8l2 4q2 0 3 1t3 1l4 -2q0 2 4 -6 l11 -12l10 12q0 2 4 6l4 2q2 0 4 -2t2 -4v-4q0 -2 -1 -2t-1 -2l-12 -17l12 -20l4 -4v-2q0 -4 -2 -4q-2 -2 -4 -2h-6q0 2 -4 6l-10 16l-13 -16q-2 -2 -2 -3t-2 -3h-4q-4 0 -6 2zM960 390.5q3 15.5 5 15.5q2 -10 1 -17.5t7 -13.5q10 -2 15 4t20 6q6 -23 24.5 -17.5t26.5 21.5 q4 -4 11 -6t13 4t0 23q16 -10 7 -27q-6 -6 -15.5 -7t-13.5 3l-11.5 -11.5t-17.5 -7.5q-16 -2 -21 7.5t-10 9.5q-8 0 -15 -6t-17 -2q-12 6 -9 21.5zM993 53q0 2 2 4h4h2h5q2 0 4 2l2 2t4 7v2l-19 49q-2 2 -2 6q0 2 2 4l2 2l5 2q2 0 4 -2t2 -3t2 -3l12 -39l12 35l4 8l2 2l5 2 l2 -2q2 0 2 -1t2 -1v-4v-2q-2 -2 -2 -4l-21 -53q-2 -4 -3 -6.5t-1 -6.5q-4 -4 -8 -6q-2 0 -4 -1t-6 -1t-6.5 1t-4.5 1q-4 4 -4 6zM1001 655q20 20 45 51t50.5 59t50 46t43.5 16q25 -4 43 -24q4 23 13 53.5t-1 54.5q-8 23 -27.5 33t-37.5 4t-39 -23.5t-29 -31.5 q-41 -59 -73.5 -118.5t-37.5 -119.5zM1016 567v12.5t2 8.5q2 -14 2 -29.5t2 -32.5q2 -29 5 -52t11 -46q-16 23 -18 62.5t-4 76.5zM1026 319q0 14 23 19q22 8 26 -6q2 -6 -6 -5t-18 -1q-10 -4 -16.5 -7.5t-8.5 0.5zM1026 672q25 23 46.5 40t47.5 33q16 10 35 21.5t29 1.5 q-2 -2 -6 -4q-8 -4 -9 -8q16 -29 20.5 -59.5t-11.5 -57.5q39 -31 42 -70t7 -75q2 -16 3 -30.5t3 -29.5q8 4 12 8q0 19 6 37q4 8 8.5 14.5t4.5 12.5q4 14 -5.5 19t-15.5 16q-8 12 -2 22t16 25q10 16 -2 26.5t-12 26.5q-2 14 12.5 25.5t14.5 23.5q-4 16 -18.5 33.5t-20.5 36.5 q-2 8 0 16t0 15q-4 16 -22.5 23t-30.5 5q-16 -2 -37 -19.5t-42.5 -41t-41 -48t-31.5 -38.5zM1032 307q-4 8 23 12q20 6 26 0q0 -4 -7 -3t-17 -3q-25 -4 -25 -6zM1055 78q0 2 1 3t1 3q2 2 6 2q6 0 6 -2q4 -4 4 -6t-4 -6q0 -2 -6 -2q-4 0 -6 2q0 2 -1 3t-1 3zM1067 480 q0 22 14 38q-6 4 -9 18.5t7 16.5q35 4 70 0t47 -31q-4 0 -16 4l6 -6q12 -18 10 -40.5t-22 -39.5q18 0 32 15q-4 -14 -24 -23q-23 -10 -51 -10t-48 20q-16 16 -16 38zM1079.5 490.5q-6.5 -19.5 10.5 -37.5q20 -25 43.5 -22t38 19.5t14.5 39t-29 38.5q-28 2 -55 -6 q-16 -12 -22.5 -31.5zM1087 100q0 12 5 17q2 4 4 6l6 6q8 4 16 4q4 0 6 -1t4 -1q8 -4 11 -4q4 -4 4 -6q2 -2 2 -6t-2 -6l-4 -3q-2 0 -2 1.5t-2 1.5l-2 4l-7 6q-2 0 -3 1t-5 1q-8 0 -10 -6q-6 -6 -6 -15q0 -2 1 -4t1 -4t4 -6q0 -4 4 -4q2 0 3 -1t3 -1q4 0 5 1t3 1q4 4 7 8 q0 2 1 2t1 2h4q4 0 6 -2l2 -4q0 -2 -1 -3t-1 -3l-6 -6q-4 -4 -9 -4q-4 -2 -12 -2q-16 0 -22 8q-8 8 -9 22zM1124 479q4 14 15 10q12 0 12 -12q-4 -12 -14 -12q-12 0 -13 14zM1139 483q0 -4 4 -4t4 4t-4 4t-4 -4zM1155 100q0 4 1 7.5t1 5.5q4 8 8 10q2 6 9 6q8 4 14 4 q4 0 12 -4q4 0 10 -6q2 -2 7 -10q0 -4 1 -6.5t1 -6.5t-1 -6t-1 -6q-4 -8 -7 -10q-4 -2 -5 -4t-5 -2q-4 -2 -12 -2q-10 0 -14 2t-9 6q-4 2 -8 10q0 4 -1 6t-1 6zM1171 100q0 -8 3 -10q4 -6 6 -8q2 0 3 -1t5 -1q6 0 10 6q4 8 4 14q0 10 -4 15q-4 6 -10 6t-8 -2t-6 -8 q-2 -2 -3 -11zM1229 78v45v4l2 2q4 4 6 4t4 -2q4 -4 4 -6v-2q2 6 8 6q4 4 11 4q2 0 10 -4l6 -6q6 6 8 6q8 4 10 4q7 0 11 -4q4 -2 8 -6q2 -4 2 -14v-31q0 -2 -1 -3t-1 -3q-2 -2 -6 -2t-6 2t-2 6v26v9q0 2 -1.5 3t-1.5 3q-2 0 -3 1t-3 1t-3 -1t-3 -1q-4 -4 -4 -6 q-2 -2 -2 -13v-22q0 -4 -2 -6t-6 -2t-6 2q0 2 -1 3t-1 3v26v9q0 4 -2 6q-2 0 -3 1t-4 1q-8 0 -10 -6q0 -4 -1 -7.5t-1 -7.5v-22q0 -4 -2 -6t-6 -2t-6 2q0 2 -1 3t-1 3zM1235 416l6 -35q4 4 9.5 6t9.5 6q-10 14 -13 31q-8 -4 -12 -8zM1243 369q2 -16 8 -28.5t9 -27.5 q23 -12 42 -3t28 26.5t7 38t-20 33.5q-30 12 -53 0q2 -6 5 -12.5t1 -10.5q-4 -6 -12.5 -9t-14.5 -7zM1268 338q0 23 20.5 33t36.5 -2q-8 2 -20.5 -1t-16.5 -10q15 4 23 -14q-23 10 -43 -6z" />
<glyph unicode="&#xad;" horiz-adv-x="696" d="M0 465v57t2 84t4 89t6 73q14 0 59.5 1t105 1h127t126.5 -1t101.5 -2t52.5 -3v-56t2 -82t3 -87t1 -70q-10 2 -52 2t-101.5 -1t-128 -3t-131 -3t-111 -1t-66.5 2z" />
<glyph unicode="&#xb4;" horiz-adv-x="819" d="M254 1182q12 4 51 23.5t85 44t87.5 48t57.5 35.5q10 -51 20 -109.5t16 -101.5q-20 -4 -63 -13t-89 -19.5t-86 -18.5t-54 -10q-2 10 -9.5 50t-15.5 71z" />
<glyph unicode="&#xbf;" horiz-adv-x="944" d="M49 -103.5q23 109.5 115 205.5q78 80 156.5 127t140 95.5t92.5 112t12 175.5q51 2 123 0t143 0q10 -135 -13.5 -216t-65.5 -131t-95 -80.5t-102 -65.5q-33 -23 -84 -65t-93 -88t-61.5 -90t11.5 -75q27 -25 74.5 -16.5t97 39.5t86 79t43.5 101q68 -37 129 -77t108 -70 q-10 -47 -55 -109.5t-111.5 -119t-145.5 -95.5t-159 -43q-125 -6 -211 53.5t-122 151.5t-13 201.5zM547 940h71.5h86.5t82 -1t53 -1q0 -27 -1.5 -62.5t-3.5 -71.5t-2 -69v-51q-20 0 -56 -1t-75 -1t-75.5 1t-57.5 1q-4 55 -10 128t-12 128z" />
<glyph unicode="&#xc0;" horiz-adv-x="1181" d="M0 0q8 55 30.5 171t53.5 260t65.5 303t67.5 298t58.5 245.5t37.5 147.5h93.5t151.5 -1t150.5 -1h90.5q6 -29 23.5 -107.5t41 -186t52 -236.5t57 -261t56.5 -258t49.5 -227.5t35.5 -170t16 -85.5h-366q-4 14 -11.5 60.5t-17.5 107t-21.5 128t-21.5 124.5 q-66 -6 -151.5 -14t-153.5 -12q-6 -27 -12 -71t-12.5 -87t-11.5 -79t-7 -48h-344zM432 1554q6 43 16.5 101.5t20.5 109.5q16 -12 57 -35.5t87 -48t85 -44t51 -23.5q-8 -31 -15 -71t-9 -50q-14 2 -54 10t-86.5 18.5t-89.5 19.5t-63 13zM442 543q51 -2 104.5 -3t102.5 -3 q-14 72 -28.5 141.5t-27.5 131.5t-25.5 114.5t-20.5 87.5q-8 -37 -19.5 -89.5t-26 -115t-30 -129.5t-29.5 -135z" />
<glyph unicode="&#xc1;" horiz-adv-x="1181" d="M0 0q8 55 30.5 171t53.5 260t65.5 303t67.5 298t58.5 245.5t37.5 147.5h93.5t151.5 -1t150.5 -1h90.5q6 -29 23.5 -107.5t41 -186t52 -236.5t57 -261t56.5 -258t49.5 -227.5t35.5 -170t16 -85.5h-366q-4 14 -11.5 60.5t-17.5 107t-21.5 128t-21.5 124.5 q-66 -6 -151.5 -14t-153.5 -12q-6 -27 -12 -71t-12.5 -87t-11.5 -79t-7 -48h-344zM432 1614q12 4 51 23.5t85 44t87.5 48t57.5 35.5q10 -51 20 -109.5t16 -101.5q-20 -4 -63 -13t-89 -19.5t-86 -18.5t-54 -10q-2 10 -9.5 50t-15.5 71zM442 543q51 -2 104.5 -3t102.5 -3 q-14 72 -28.5 141.5t-27.5 131.5t-25.5 114.5t-20.5 87.5q-8 -37 -19.5 -89.5t-26 -115t-30 -129.5t-29.5 -135z" />
<glyph unicode="&#xc2;" horiz-adv-x="1181" d="M0 0q8 55 30.5 171t53.5 260t65.5 303t67.5 298t58.5 245.5t37.5 147.5h93.5t151.5 -1t150.5 -1h90.5q6 -29 23.5 -107.5t41 -186t52 -236.5t57 -261t56.5 -258t49.5 -227.5t35.5 -170t16 -85.5h-366q-4 14 -11.5 60.5t-17.5 107t-21.5 128t-21.5 124.5 q-66 -6 -151.5 -14t-153.5 -12q-6 -27 -12 -71t-12.5 -87t-11.5 -79t-7 -48h-344zM395 1591q10 8 38 42t59.5 75t59.5 79t38 56l2 -2v2q10 -18 37.5 -56t59.5 -79t59.5 -75t37.5 -42q-20 -25 -42.5 -58.5t-28.5 -41.5q-12 8 -47 33.5t-76 54.5q-41 -29 -77 -54.5t-46 -33.5 q-6 8 -29.5 42t-44.5 58zM442 543q51 -2 104.5 -3t102.5 -3q-14 72 -28.5 141.5t-27.5 131.5t-25.5 114.5t-20.5 87.5q-8 -37 -19.5 -89.5t-26 -115t-30 -129.5t-29.5 -135z" />
<glyph unicode="&#xc3;" horiz-adv-x="1181" d="M0 0q8 55 30.5 171t53.5 260t65.5 303t67.5 298t58.5 245.5t37.5 147.5h93.5t151.5 -1t150.5 -1h90.5q6 -29 23.5 -107.5t41 -186t52 -236.5t57 -261t56.5 -258t49.5 -227.5t35.5 -170t16 -85.5h-366q-4 14 -11.5 60.5t-17.5 107t-21.5 128t-21.5 124.5 q-66 -6 -151.5 -14t-153.5 -12q-6 -27 -12 -71t-12.5 -87t-11.5 -79t-7 -48h-344zM342 1665q18 37 53 56.5t73 23.5t74 -5.5t60 -27.5q41 -31 82 -34t86 44q8 -14 17.5 -36.5t18.5 -46t17 -43t15 -27.5q-37 -33 -75 -51.5t-72 -24.5t-61.5 0t-43.5 22t-40 26.5t-49.5 10.5 t-49 -9t-37.5 -30q-6 10 -13.5 29.5t-16.5 41.5t-18.5 43.5t-19.5 37.5zM442 543q51 -2 104.5 -3t102.5 -3q-14 72 -28.5 141.5t-27.5 131.5t-25.5 114.5t-20.5 87.5q-8 -37 -19.5 -89.5t-26 -115t-30 -129.5t-29.5 -135z" />
<glyph unicode="&#xc4;" horiz-adv-x="1181" d="M0 0q8 55 30.5 171t53.5 260t65.5 303t67.5 298t58.5 245.5t37.5 147.5h93.5t151.5 -1t150.5 -1h90.5q6 -29 23.5 -107.5t41 -186t52 -236.5t57 -261t56.5 -258t49.5 -227.5t35.5 -170t16 -85.5h-366q-4 14 -11.5 60.5t-17.5 107t-21.5 128t-21.5 124.5 q-66 -6 -151.5 -14t-153.5 -12q-6 -27 -12 -71t-12.5 -87t-11.5 -79t-7 -48h-344zM352 1749q10 -2 39 -2t64 -1t68.5 -1t54.5 -2q2 -18 2 -49v-66t-1 -69.5t-1 -63.5q-16 -2 -45 -2t-59.5 1t-57.5 2t-39 5q0 18 -3 49t-7 66t-8.5 69.5t-6.5 63.5zM442 543q51 -2 104.5 -3 t102.5 -3q-14 72 -28.5 141.5t-27.5 131.5t-25.5 114.5t-20.5 87.5q-8 -37 -19.5 -89.5t-26 -115t-30 -129.5t-29.5 -135zM602 1620q0 35 1 66t3 49q20 2 53 2t68 1t63.5 1t39.5 2q-2 -29 -5.5 -64t-7.5 -69.5t-7 -65.5t-3 -49q-12 -4 -39.5 -6t-58.5 -3t-59.5 0t-45.5 3 q0 29 -1 63.5t-1 69.5z" />
<glyph unicode="&#xc5;" horiz-adv-x="1181" d="M0 0q8 55 30.5 171t53.5 260t65.5 303t67.5 298t58.5 245.5t37.5 147.5h93.5t151.5 -1t150.5 -1h90.5q6 -29 23.5 -107.5t41 -186t52 -236.5t57 -261t56.5 -258t49.5 -227.5t35.5 -170t16 -85.5h-366q-4 14 -11.5 60.5t-17.5 107t-21.5 128t-21.5 124.5 q-66 -6 -151.5 -14t-153.5 -12q-6 -27 -12 -71t-12.5 -87t-11.5 -79t-7 -48h-344zM440 1622q2 53 45.5 91t106.5 38t107 -32t44 -97q0 -53 -44 -90t-107 -37t-108.5 30.5t-43.5 96.5zM442 543q51 -2 104.5 -3t102.5 -3q-14 72 -28.5 141.5t-27.5 131.5t-25.5 114.5 t-20.5 87.5q-8 -37 -19.5 -89.5t-26 -115t-30 -129.5t-29.5 -135zM549 1622q0 -23 14.5 -29t28.5 -6q18 0 31.5 6t13.5 29q-4 33 -45 39q-20 4 -31.5 -10.5t-11.5 -28.5z" />
<glyph unicode="&#xc6;" horiz-adv-x="1660" d="M0 0q8 55 30.5 171t53.5 260t65.5 303t67.5 298t58.5 245.5t37.5 147.5h93.5t151.5 -1t150.5 -1h90.5v-4q37 2 100.5 3t140 2t159.5 1h160t141.5 -2t105.5 -6v-332q-20 0 -70.5 1t-116 2.5t-142.5 3.5t-151 4q-6 -59 -12 -124t-12 -132q66 4 142.5 6t133.5 8 q0 -25 -1 -79t-2 -114.5t-4 -113.5t-5 -72q-23 4 -57.5 8t-76.5 7.5t-84 6.5t-79 7q-4 -43 -8 -85t-8 -83q68 4 145.5 8t153 7t141.5 4t106 -1v-354h-92h-149h-178.5h-176h-144h-83.5h-24q-6 29 -21.5 113t-38.5 198q-66 -6 -151.5 -14t-153.5 -12q-6 -27 -12 -71t-12.5 -87 t-11.5 -79t-7 -48h-344zM442 543q51 -2 104.5 -3t102.5 -3q-14 72 -28.5 141.5t-27.5 131.5t-25.5 114.5t-20.5 87.5q-8 -37 -19.5 -89.5t-26 -115t-30 -129.5t-29.5 -135z" />
<glyph unicode="&#xc7;" horiz-adv-x="1140" d="M0 582q8 129 49 256t110.5 242.5t158 199.5t192.5 127t215 27q117 -18 186.5 -77t106.5 -132.5t46 -151.5t7 -133q-37 0 -82 -2t-92 -4t-93 -4t-85 -2q-4 98 -43 128.5t-91.5 0t-107.5 -121.5t-90 -237q-27 -109 -18.5 -189.5t36 -128.5t68.5 -62.5t84 6t81 78t58 153.5 q37 2 85 2h99.5t102.5 -1t94 -1q-4 -47 -20.5 -106.5t-47 -122t-76.5 -122t-105.5 -105.5t-135.5 -73.5t-168 -25.5h-2q-10 -35 -12 -61q25 -8 46.5 -26.5t36.5 -46.5t20 -63.5t-5 -78.5q-16 -63 -61 -96.5t-100.5 -38.5t-111.5 18.5t-93 70.5q16 47 34.5 76t47.5 58 q12 -23 34.5 -40.5t46 -24.5t43 -1t25.5 35q6 27 -9 52.5t-39 44t-52.5 25.5t-50.5 1q4 27 10 57.5t12 63.5q-131 37 -209 120.5t-110.5 195.5t-24.5 241z" />
<glyph unicode="&#xc8;" horiz-adv-x="907" d="M-8 0q2 41 3 146.5t2 242.5t1 293v299t-1 260t-3 178q2 0 52 1t129 2t176.5 2t191.5 1t175 -2t128 -6v-332q-20 0 -70.5 1t-116 2.5t-142.5 3.5t-150 4q-6 -59 -12.5 -124t-12.5 -132q66 4 142.5 6t133.5 8q0 -25 -1 -79t-2 -114.5t-4 -113.5t-5 -72q-23 4 -57.5 8 t-76.5 7.5t-84 6.5t-79 7q-4 -43 -8 -85t-8 -83q68 4 145.5 8t153.5 7t141.5 4t106.5 -1v-354h-92.5h-149.5h-178h-176h-144.5h-83.5h-24zM295 1554q6 43 16.5 101.5t20.5 109.5q16 -12 57 -35.5t87 -48t85 -44t51 -23.5q-8 -31 -15 -71t-9 -50q-14 2 -54 10t-86.5 18.5 t-89.5 19.5t-63 13z" />
<glyph unicode="&#xc9;" horiz-adv-x="907" d="M-8 0q2 41 3 146.5t2 242.5t1 293v299t-1 260t-3 178q2 0 52 1t129 2t176.5 2t191.5 1t175 -2t128 -6v-332q-20 0 -70.5 1t-116 2.5t-142.5 3.5t-150 4q-6 -59 -12.5 -124t-12.5 -132q66 4 142.5 6t133.5 8q0 -25 -1 -79t-2 -114.5t-4 -113.5t-5 -72q-23 4 -57.5 8 t-76.5 7.5t-84 6.5t-79 7q-4 -43 -8 -85t-8 -83q68 4 145.5 8t153.5 7t141.5 4t106.5 -1v-354h-92.5h-149.5h-178h-176h-144.5h-83.5h-24zM295 1614q12 4 51 23.5t85 44t87.5 48t57.5 35.5q10 -51 20 -109.5t16 -101.5q-20 -4 -63 -13t-89 -19.5t-86 -18.5t-54 -10 q-2 10 -9.5 50t-15.5 71z" />
<glyph unicode="&#xca;" horiz-adv-x="907" d="M-8 0q2 41 3 146.5t2 242.5t1 293v299t-1 260t-3 178q2 0 52 1t129 2t176.5 2t191.5 1t175 -2t128 -6v-332q-20 0 -70.5 1t-116 2.5t-142.5 3.5t-150 4q-6 -59 -12.5 -124t-12.5 -132q66 4 142.5 6t133.5 8q0 -25 -1 -79t-2 -114.5t-4 -113.5t-5 -72q-23 4 -57.5 8 t-76.5 7.5t-84 6.5t-79 7q-4 -43 -8 -85t-8 -83q68 4 145.5 8t153.5 7t141.5 4t106.5 -1v-354h-92.5h-149.5h-178h-176h-144.5h-83.5h-24zM258 1591q10 8 38 42t59.5 75t59.5 79t38 56l2 -2v2q10 -18 37.5 -56t59.5 -79t59.5 -75t37.5 -42q-20 -25 -42.5 -58.5t-28.5 -41.5 q-12 8 -47 33.5t-76 54.5q-41 -29 -77 -54.5t-46 -33.5q-6 8 -29.5 42t-44.5 58z" />
<glyph unicode="&#xcb;" horiz-adv-x="907" d="M-8 0q2 41 3 146.5t2 242.5t1 293v299t-1 260t-3 178q2 0 52 1t129 2t176.5 2t191.5 1t175 -2t128 -6v-332q-20 0 -70.5 1t-116 2.5t-142.5 3.5t-150 4q-6 -59 -12.5 -124t-12.5 -132q66 4 142.5 6t133.5 8q0 -25 -1 -79t-2 -114.5t-4 -113.5t-5 -72q-23 4 -57.5 8 t-76.5 7.5t-84 6.5t-79 7q-4 -43 -8 -85t-8 -83q68 4 145.5 8t153.5 7t141.5 4t106.5 -1v-354h-92.5h-149.5h-178h-176h-144.5h-83.5h-24zM215 1749q10 -2 39 -2t64 -1t68.5 -1t54.5 -2q2 -18 2 -49v-66t-1 -69.5t-1 -63.5q-16 -2 -45 -2t-59.5 1t-57.5 2t-39 5q0 18 -3 49 t-7 66t-8.5 69.5t-6.5 63.5zM465 1620q0 35 1 66t3 49q20 2 53 2t68 1t63.5 1t39.5 2q-2 -29 -5.5 -64t-7.5 -69.5t-7 -65.5t-3 -49q-12 -4 -39.5 -6t-58.5 -3t-59.5 0t-45.5 3q0 29 -1 63.5t-1 69.5z" />
<glyph unicode="&#xcc;" horiz-adv-x="438" d="M0 1413h365q-2 -33 -7.5 -136t-11.5 -242.5t-14 -299.5t-15.5 -305t-13.5 -262t-8 -168h-285q2 41 2 145.5t-1 240.5t-2 292t-3 299t-3 260t-3 176zM16 1554q6 43 16.5 101.5t20.5 109.5q16 -12 57.5 -35.5t87.5 -48t85 -44t51 -23.5q-8 -31 -15.5 -71t-9.5 -50 q-14 2 -54 10t-86 18.5t-89 19.5t-64 13z" />
<glyph unicode="&#xcd;" horiz-adv-x="438" d="M0 1415q2 -59 3 -176t3 -260t3 -299t2 -293t1 -241.5t-2 -145.5h285q2 39 6 114.5t9 175t10.5 214t11.5 231.5t11 228.5t9 204t7 158t6 89.5h-365zM18 1614q12 4 51.5 23.5t85.5 44t87 48t57 35.5q10 -51 20.5 -109.5t16.5 -101.5q-20 -4 -63.5 -13t-89.5 -19.5 t-86 -18.5t-54 -10q-2 10 -9 50t-16 71z" />
<glyph unicode="&#xce;" horiz-adv-x="438" d="M-18 1591q10 8 37.5 42t59.5 75t59.5 79t37.5 56l2 -2v2q10 -18 38 -56t59.5 -79t59.5 -75t38 -42q-20 -25 -43 -58.5t-29 -41.5q-12 8 -47 33.5t-76 54.5q-41 -29 -76.5 -54.5t-46.5 -33.5q-6 8 -29.5 42t-43.5 58zM0 1415h365q-2 -25 -5.5 -90t-7.5 -157.5t-9 -204 t-11 -228.5t-11.5 -231.5t-10.5 -214t-9 -175t-6 -114.5h-285q2 41 2 145.5t-1 241.5t-2 293t-3 299t-3 260t-3 176z" />
<glyph unicode="&#xcf;" horiz-adv-x="438" d="M-59 1749q10 -2 38.5 -2t63.5 -1t68.5 -1t54.5 -2q2 -18 2 -49v-66t-1 -69.5t-1 -63.5q-16 -2 -45 -2t-59.5 1t-57.5 2t-39 5q0 18 -3 49t-7 66t-8 69.5t-6 63.5zM0 1413h365q-2 -33 -7.5 -136t-11.5 -242.5t-14 -299.5t-15.5 -305t-13.5 -262t-8 -168h-285q2 41 2 145.5 t-1 240.5t-2 292t-3 299t-3 260t-3 176zM190 1620q0 35 1.5 66t3.5 49q20 2 53 2t67.5 1t63.5 1t39 2q-2 -29 -5 -64t-7.5 -69.5t-7.5 -65.5t-3 -49q-12 -4 -39.5 -6t-58.5 -3t-59.5 0t-44.5 3q0 29 -1.5 63.5t-1.5 69.5z" />
<glyph unicode="&#xd1;" horiz-adv-x="1136" d="M0 2q4 100 11 232.5t15.5 274.5t15.5 285.5t14 265.5t11.5 213t6.5 130q33 -2 84 -3t105 -3t104.5 -3t81.5 -1q6 -18 29.5 -77t58 -142.5t76.5 -184t85 -201.5q0 111 -1 214.5t-1 189.5t-1 146t-3 85q41 2 98.5 2h117t111.5 -1t83 -1q-4 -49 -14.5 -162.5t-21.5 -259 t-24.5 -305t-23.5 -301t-18.5 -249t-10.5 -146.5h-282l-19 48q-20 48 -51 121t-66.5 160t-68.5 166.5t-57.5 139t-30.5 78.5q-4 -76 -10.5 -186.5t-13.5 -218t-12 -193.5t-7 -113h-371zM320 1665q18 37 53 56.5t73 23.5t74 -5.5t60 -27.5q41 -31 82 -34t86 44 q8 -14 17.5 -36.5t18.5 -46t17 -43t15 -27.5q-37 -33 -75 -51.5t-72 -24.5t-61.5 0t-43.5 22t-40 26.5t-49.5 10.5t-49 -9t-37.5 -30q-6 10 -13.5 29.5t-16.5 41.5t-18.5 43.5t-19.5 37.5z" />
<glyph unicode="&#xd2;" horiz-adv-x="1120" d="M0 711q0 147 34 278t100.5 228.5t165.5 152.5t232 53q147 -2 249 -58t164.5 -152.5t91 -225.5t28.5 -276t-37 -277.5t-106.5 -229t-168 -153.5t-221.5 -51q-137 4 -237 61.5t-166 152.5t-97.5 222t-31.5 275zM326 688q0 -80 12 -148.5t37.5 -118.5t64.5 -81t92 -33 q47 -2 86 28t66 82t41 121.5t14 149.5q0 78 -11 146.5t-35.5 121t-63.5 82t-97 31.5q-51 0 -90 -29.5t-64.5 -82t-38.5 -122t-13 -147.5zM401 1554q6 43 16.5 101.5t20.5 109.5q16 -12 57 -35.5t87 -48t85 -44t51 -23.5q-8 -31 -15 -71t-9 -50q-14 2 -54 10t-86.5 18.5 t-89.5 19.5t-63 13z" />
<glyph unicode="&#xd3;" horiz-adv-x="1120" d="M0 711q0 147 34 278t100.5 228.5t165.5 152.5t232 53q147 -2 249 -58t164.5 -152.5t91 -225.5t28.5 -276t-37 -277.5t-106.5 -229t-168 -153.5t-221.5 -51q-137 4 -237 61.5t-166 152.5t-97.5 222t-31.5 275zM326 688q0 -80 12 -148.5t37.5 -118.5t64.5 -81t92 -33 q47 -2 86 28t66 82t41 121.5t14 149.5q0 78 -11 146.5t-35.5 121t-63.5 82t-97 31.5q-51 0 -90 -29.5t-64.5 -82t-38.5 -122t-13 -147.5zM401 1614q12 4 51 23.5t85 44t87.5 48t57.5 35.5q10 -51 20 -109.5t16 -101.5q-20 -4 -63 -13t-89 -19.5t-86 -18.5t-54 -10 q-2 10 -9.5 50t-15.5 71z" />
<glyph unicode="&#xd4;" horiz-adv-x="1120" d="M0 711q0 147 34 278t100.5 228.5t165.5 152.5t232 53q147 -2 249 -58t164.5 -152.5t91 -225.5t28.5 -276t-37 -277.5t-106.5 -229t-168 -153.5t-221.5 -51q-137 4 -237 61.5t-166 152.5t-97.5 222t-31.5 275zM326 688q0 -80 12 -148.5t37.5 -118.5t64.5 -81t92 -33 q47 -2 86 28t66 82t41 121.5t14 149.5q0 78 -11 146.5t-35.5 121t-63.5 82t-97 31.5q-51 0 -90 -29.5t-64.5 -82t-38.5 -122t-13 -147.5zM364 1591q10 8 38 42t59.5 75t59.5 79t38 56l2 -2v2q10 -18 37.5 -56t59.5 -79t59.5 -75t37.5 -42q-20 -25 -42.5 -58.5t-28.5 -41.5 q-12 8 -47 33.5t-76 54.5q-41 -29 -77 -54.5t-46 -33.5q-6 8 -29.5 42t-44.5 58z" />
<glyph unicode="&#xd5;" horiz-adv-x="1120" d="M0 711q0 147 34 278t100.5 228.5t165.5 152.5t232 53q147 -2 249 -58t164.5 -152.5t91 -225.5t28.5 -276t-37 -277.5t-106.5 -229t-168 -153.5t-221.5 -51q-137 4 -237 61.5t-166 152.5t-97.5 222t-31.5 275zM311 1665q18 37 53 56.5t73 23.5t74 -5.5t60 -27.5 q41 -31 82 -34t86 44q8 -14 17.5 -36.5t18.5 -46t17 -43t15 -27.5q-37 -33 -75 -51.5t-72 -24.5t-61.5 0t-43.5 22t-40 26.5t-49.5 10.5t-49 -9t-37.5 -30q-6 10 -13.5 29.5t-16.5 41.5t-18.5 43.5t-19.5 37.5zM326 688q0 -80 12 -148.5t37.5 -118.5t64.5 -81t92 -33 q47 -2 86 28t66 82t41 121.5t14 149.5q0 78 -11 146.5t-35.5 121t-63.5 82t-97 31.5q-51 0 -90 -29.5t-64.5 -82t-38.5 -122t-13 -147.5z" />
<glyph unicode="&#xd6;" horiz-adv-x="1120" d="M0 711q0 147 34 278t100.5 228.5t165.5 152.5t232 53q147 -2 249 -58t164.5 -152.5t91 -225.5t28.5 -276t-37 -277.5t-106.5 -229t-168 -153.5t-221.5 -51q-137 4 -237 61.5t-166 152.5t-97.5 222t-31.5 275zM321 1749q10 -2 39 -2t64 -1t68.5 -1t54.5 -2q2 -18 2 -49 v-66t-1 -69.5t-1 -63.5q-16 -2 -45 -2t-59.5 1t-57.5 2t-39 5q0 18 -3 49t-7 66t-8.5 69.5t-6.5 63.5zM326 688q0 -80 12 -148.5t37.5 -118.5t64.5 -81t92 -33q47 -2 86 28t66 82t41 121.5t14 149.5q0 78 -11 146.5t-35.5 121t-63.5 82t-97 31.5q-51 0 -90 -29.5t-64.5 -82 t-38.5 -122t-13 -147.5zM571 1620q0 35 1 66t3 49q20 2 53 2t68 1t63.5 1t39.5 2q-2 -29 -5.5 -64t-7.5 -69.5t-7 -65.5t-3 -49q-12 -4 -39.5 -6t-58.5 -3t-59.5 0t-45.5 3q0 29 -1 63.5t-1 69.5z" />
<glyph unicode="&#xd7;" horiz-adv-x="710" d="M0 397q10 12 36.5 41t58.5 61.5t63.5 64.5t52.5 50q10 -8 35.5 -30.5t62.5 -55.5q33 39 58.5 67t35.5 38q14 -10 43 -37t62 -58.5t64.5 -62.5t50.5 -51q-8 -10 -30.5 -36.5t-55.5 -61.5q39 -35 65.5 -60.5t30.5 -34.5q-12 -14 -37 -42.5t-52.5 -62.5t-55 -66.5 t-46.5 -53.5q-4 8 -33.5 34t-72.5 62q-37 -41 -63.5 -68.5t-34.5 -33.5q-12 12 -41 36.5t-63 52.5t-66.5 55.5t-53.5 45.5q8 6 34 36t61 71q-41 35 -70 61.5t-39 38.5z" />
<glyph unicode="&#xd9;" horiz-adv-x="1085" d="M3 725q-13 276 30 702h350q0 -4 -5 -53t-12.5 -128t-13.5 -179t-8 -203.5t4 -203t22.5 -176t46 -124t77.5 -47.5q47 0 75.5 46.5t45 121t20.5 169.5t2 195.5t-9 197t-14.5 173t-13.5 125t-6 52.5h82h95t93 1t76 1q66 -379 53.5 -643.5t-82 -432t-182.5 -243.5t-248 -76 q-139 0 -242.5 63.5t-163 224.5t-72.5 437zM383 1554q6 43 16.5 101.5t20.5 109.5q16 -12 57 -35.5t87 -48t85 -44t51 -23.5q-8 -31 -15 -71t-9 -50q-14 2 -54 10t-86.5 18.5t-89.5 19.5t-63 13z" />
<glyph unicode="&#xda;" horiz-adv-x="1085" d="M3 725q-13 276 30 702h350q0 -4 -5 -53t-12.5 -128t-13.5 -179t-8 -203.5t4 -203t22.5 -176t46 -124t77.5 -47.5q47 0 75.5 46.5t45 121t20.5 169.5t2 195.5t-9 197t-14.5 173t-13.5 125t-6 52.5h82h95t93 1t76 1q66 -379 53.5 -643.5t-82 -432t-182.5 -243.5t-248 -76 q-139 0 -242.5 63.5t-163 224.5t-72.5 437zM383 1614q12 4 51 23.5t85 44t87.5 48t57.5 35.5q10 -51 20 -109.5t16 -101.5q-20 -4 -63 -13t-89 -19.5t-86 -18.5t-54 -10q-2 10 -9.5 50t-15.5 71z" />
<glyph unicode="&#xdb;" horiz-adv-x="1085" d="M3 725q-13 276 30 702h350q0 -4 -5 -53t-12.5 -128t-13.5 -179t-8 -203.5t4 -203t22.5 -176t46 -124t77.5 -47.5q47 0 75.5 46.5t45 121t20.5 169.5t2 195.5t-9 197t-14.5 173t-13.5 125t-6 52.5h82h95t93 1t76 1q66 -379 53.5 -643.5t-82 -432t-182.5 -243.5t-248 -76 q-139 0 -242.5 63.5t-163 224.5t-72.5 437zM346 1591q10 8 38 42t59.5 75t59.5 79t38 56l2 -2v2q10 -18 37.5 -56t59.5 -79t59.5 -75t37.5 -42q-20 -25 -42.5 -58.5t-28.5 -41.5q-12 8 -47 33.5t-76 54.5q-41 -29 -77 -54.5t-46 -33.5q-6 8 -29.5 42t-44.5 58z" />
<glyph unicode="&#xdc;" horiz-adv-x="1085" d="M3 725q-13 276 30 702h350q0 -4 -5 -53t-12.5 -128t-13.5 -179t-8 -203.5t4 -203t22.5 -176t46 -124t77.5 -47.5q47 0 75.5 46.5t45 121t20.5 169.5t2 195.5t-9 197t-14.5 173t-13.5 125t-6 52.5h82h95t93 1t76 1q66 -379 53.5 -643.5t-82 -432t-182.5 -243.5t-248 -76 q-139 0 -242.5 63.5t-163 224.5t-72.5 437zM303 1749q10 -2 39 -2t64 -1t68.5 -1t54.5 -2q2 -18 2 -49v-66t-1 -69.5t-1 -63.5q-16 -2 -45 -2t-59.5 1t-57.5 2t-39 5q0 18 -3 49t-7 66t-8.5 69.5t-6.5 63.5zM553 1620q0 35 1 66t3 49q20 2 53 2t68 1t63.5 1t39.5 2 q-2 -29 -5.5 -64t-7.5 -69.5t-7 -65.5t-3 -49q-12 -4 -39.5 -6t-58.5 -3t-59.5 0t-45.5 3q0 29 -1 63.5t-1 69.5z" />
<glyph unicode="&#xdd;" horiz-adv-x="1064" d="M1 985q-7 186 42 442h375q0 -4 -14.5 -61t-29 -141t-23.5 -181.5t1 -181.5t45 -139t111 -57q78 -2 112.5 53t41 138t-9 180.5t-35 182.5t-37 144t-17.5 63q37 0 88 -1t104.5 -1h104.5h86q59 -254 57 -438t-48 -311t-124.5 -201t-171.5 -104q6 -41 13.5 -89.5t13.5 -98.5 t12.5 -97t12.5 -86q-35 0 -90.5 1t-115 1t-113.5 -1t-85 -1q8 78 19.5 171t27.5 198q-94 29 -173 102.5t-126 200.5t-54 313zM373 1614q12 4 51 23.5t85 44t87.5 48t57.5 35.5q10 -51 20 -109.5t16 -101.5q-20 -4 -63 -13t-89 -19.5t-86 -18.5t-54 -10q-2 10 -9.5 50 t-15.5 71z" />
<glyph unicode="&#xe0;" horiz-adv-x="839" d="M-25 295q-4 121 50.5 187.5t136.5 87t175 2t167 -65.5q0 27 1 49.5t-1 38.5q-2 70 -34 108.5t-68.5 44t-64.5 -27.5t-20 -109q-18 0 -54 -1t-74.5 -2t-75.5 -2t-62 -1q-4 57 9.5 129t50 136.5t98.5 111.5t158 55q119 10 194.5 -25.5t119.5 -107.5t61.5 -172t20.5 -219 t-2 -250t-5 -262h-273q-2 8 -2 20.5v28.5q-74 -47 -159.5 -58t-160.5 16.5t-127 98t-59 189.5zM223 252q2 -41 33 -61.5t71 -23.5t80 12t60 46q14 18 14 37t-10 31q-23 27 -66 43t-83.5 14t-71.5 -25.5t-27 -72.5zM260 1122q6 43 16.5 101.5t20.5 109.5q16 -12 57 -35.5 t87 -48t85 -44t51 -23.5q-8 -31 -15 -71t-9 -50q-14 2 -54 10t-86.5 18.5t-89.5 19.5t-63 13z" />
<glyph unicode="&#xe1;" horiz-adv-x="839" d="M-25 295q-4 121 50.5 187.5t136.5 87t175 2t167 -65.5q0 27 1 49.5t-1 38.5q-2 70 -34 108.5t-68.5 44t-64.5 -27.5t-20 -109q-18 0 -54 -1t-74.5 -2t-75.5 -2t-62 -1q-4 57 9.5 129t50 136.5t98.5 111.5t158 55q119 10 194.5 -25.5t119.5 -107.5t61.5 -172t20.5 -219 t-2 -250t-5 -262h-273q-2 8 -2 20.5v28.5q-74 -47 -159.5 -58t-160.5 16.5t-127 98t-59 189.5zM223 252q2 -41 33 -61.5t71 -23.5t80 12t60 46q14 18 14 37t-10 31q-23 27 -66 43t-83.5 14t-71.5 -25.5t-27 -72.5zM260 1182q12 4 51 23.5t85 44t87.5 48t57.5 35.5 q10 -51 20 -109.5t16 -101.5q-20 -4 -63 -13t-89 -19.5t-86 -18.5t-54 -10q-2 10 -9.5 50t-15.5 71z" />
<glyph unicode="&#xe2;" horiz-adv-x="839" d="M-25 295q-4 121 50.5 187.5t136.5 87t175 2t167 -65.5q0 27 1 49.5t-1 38.5q-2 70 -34 108.5t-68.5 44t-64.5 -27.5t-20 -109q-18 0 -54 -1t-74.5 -2t-75.5 -2t-62 -1q-4 57 9.5 129t50 136.5t98.5 111.5t158 55q119 10 194.5 -25.5t119.5 -107.5t61.5 -172t20.5 -219 t-2 -250t-5 -262h-273q-2 8 -2 20.5v28.5q-74 -47 -159.5 -58t-160.5 16.5t-127 98t-59 189.5zM223 252q2 -41 33 -61.5t71 -23.5t80 12t60 46q14 18 14 37t-10 31q-23 27 -66 43t-83.5 14t-71.5 -25.5t-27 -72.5zM223 1159q10 8 38 42t59.5 75t59.5 79t38 56l2 -2v2 q10 -18 37.5 -56t59.5 -79t59.5 -75t37.5 -42q-20 -25 -42.5 -58.5t-28.5 -41.5q-12 8 -47 33.5t-76 54.5q-41 -29 -77 -54.5t-46 -33.5q-6 8 -29.5 42t-44.5 58z" />
<glyph unicode="&#xe3;" horiz-adv-x="839" d="M-25 295q-4 121 50.5 187.5t136.5 87t175 2t167 -65.5q0 27 1 49.5t-1 38.5q-2 70 -34 108.5t-68.5 44t-64.5 -27.5t-20 -109q-18 0 -54 -1t-74.5 -2t-75.5 -2t-62 -1q-4 57 9.5 129t50 136.5t98.5 111.5t158 55q119 10 194.5 -25.5t119.5 -107.5t61.5 -172t20.5 -219 t-2 -250t-5 -262h-273q-2 8 -2 20.5v28.5q-74 -47 -159.5 -58t-160.5 16.5t-127 98t-59 189.5zM172 1233q18 37 53 56.5t73 23.5t74 -5.5t60 -27.5q41 -31 82 -34t86 44q8 -14 17.5 -36.5t18.5 -46t17 -43t15 -27.5q-37 -33 -75 -51.5t-72 -24.5t-61.5 0t-43.5 22t-40 26.5 t-49.5 10.5t-49 -9t-37.5 -30q-6 10 -13.5 29.5t-16.5 41.5t-18.5 43.5t-19.5 37.5zM223 252q2 -41 33 -61.5t71 -23.5t80 12t60 46q14 18 14 37t-10 31q-23 27 -66 43t-83.5 14t-71.5 -25.5t-27 -72.5z" />
<glyph unicode="&#xe4;" horiz-adv-x="839" d="M-25 295q-4 121 50.5 187.5t136.5 87t175 2t167 -65.5q0 27 1 49.5t-1 38.5q-2 70 -34 108.5t-68.5 44t-64.5 -27.5t-20 -109q-18 0 -54 -1t-74.5 -2t-75.5 -2t-62 -1q-4 57 9.5 129t50 136.5t98.5 111.5t158 55q119 10 194.5 -25.5t119.5 -107.5t61.5 -172t20.5 -219 t-2 -250t-5 -262h-273q-2 8 -2 20.5v28.5q-74 -47 -159.5 -58t-160.5 16.5t-127 98t-59 189.5zM184 1317q10 -2 39 -2t64 -1t68.5 -1t54.5 -2q2 -18 2 -49v-66t-1 -69.5t-1 -63.5q-16 -2 -45 -2t-59.5 1t-57.5 2t-39 5q0 18 -3 49t-7 66t-8.5 69.5t-6.5 63.5zM223 252 q2 -41 33 -61.5t71 -23.5t80 12t60 46q14 18 14 37t-10 31q-23 27 -66 43t-83.5 14t-71.5 -25.5t-27 -72.5zM434 1188q0 35 1 66t3 49q20 2 53 2t68 1t63.5 1t39.5 2q-2 -29 -5.5 -64t-7.5 -69.5t-7 -65.5t-3 -49q-12 -4 -39.5 -6t-58.5 -3t-59.5 0t-45.5 3q0 29 -1 63.5 t-1 69.5z" />
<glyph unicode="&#xe5;" horiz-adv-x="839" d="M-25 295q-4 121 50.5 187.5t136.5 87t175 2t167 -65.5q0 27 1 49.5t-1 38.5q-2 70 -34 108.5t-68.5 44t-64.5 -27.5t-20 -109q-18 0 -54 -1t-74.5 -2t-75.5 -2t-62 -1q-4 57 9.5 129t50 136.5t98.5 111.5t158 55q119 10 194.5 -25.5t119.5 -107.5t61.5 -172t20.5 -219 t-2 -250t-5 -262h-273q-2 8 -2 20.5v28.5q-74 -47 -159.5 -58t-160.5 16.5t-127 98t-59 189.5zM223 252q2 -41 33 -61.5t71 -23.5t80 12t60 46q14 18 14 37t-10 31q-23 27 -66 43t-83.5 14t-71.5 -25.5t-27 -72.5zM268 1190q2 53 45.5 91t106.5 38t107 -32t44 -97 q0 -53 -44 -90t-107 -37t-108.5 30.5t-43.5 96.5zM377 1190q0 -23 14.5 -29t28.5 -6q18 0 31.5 6t13.5 29q-4 33 -45 39q-20 4 -31.5 -10.5t-11.5 -28.5z" />
<glyph unicode="&#xe6;" horiz-adv-x="1390" d="M0 293q-4 121 47 186.5t129 86t167 2t159 -65.5q0 27 1 49t-1 39q-2 68 -33 106.5t-64.5 43.5t-60.5 -27.5t-18 -106.5q-18 0 -52 -1t-71 -2t-73 -2t-58 -1q-4 55 9 126t47 135.5t93.5 111.5t149.5 55q104 10 172.5 -19.5t111.5 -88.5q61 59 139 86.5t156 19.5 q150 -14 223.5 -111.5t73.5 -246.5q0 -74 -26.5 -139.5t-72.5 -114.5t-110.5 -78t-138.5 -29q-31 0 -60.5 5t-58.5 16q45 -66 111.5 -83.5t131 1t117 68.5t70.5 122q12 -25 27.5 -55.5t30 -59t26 -53t17.5 -39.5q-23 -45 -64 -90t-97 -78.5t-126 -51t-150 -7.5 q-72 10 -133 43v-45h-258q-2 8 -2 20.5v28.5q-70 -47 -151.5 -58t-153.5 16.5t-122 98t-54 187.5zM236 223q2 -51 30.5 -77.5t66.5 -29.5t76 16t58 58q14 23 14 46.5t-10 39.5q-23 33 -62.5 52.5t-79.5 16.5t-69 -31.5t-24 -90.5zM782 610q4 -61 44 -87.5t94 -24.5 q59 2 100 41t33 110q-6 59 -50.5 81t-95.5 18t-90 -38t-35 -100z" />
<glyph unicode="&#xe7;" horiz-adv-x="845" d="M8.5 357.5q-18.5 117.5 6 243.5t90 226.5t168 157.5t241.5 39q76 -10 124 -53t73.5 -98.5t34 -113t6.5 -95.5q-20 -6 -56.5 -13.5t-75 -13.5t-75.5 -12.5t-60 -10.5q-2 66 -34.5 92.5t-74.5 13.5t-78 -69.5t-44 -156.5q-8 -96 21.5 -158t72.5 -79t88 13.5t68 118.5 q55 4 126.5 2t137.5 -2q-4 -47 -24.5 -112.5t-62.5 -125t-109.5 -103.5t-163.5 -50q-4 -14 -6.5 -26.5t-6.5 -22.5q39 -14 69 -59.5t11 -114.5q-14 -51 -50 -78t-80 -30t-88 14.5t-75 56.5q12 39 26.5 61.5t37.5 44.5q10 -18 28.5 -31.5t37 -19.5t34.5 -1t21 28 q4 23 -7.5 43t-31 33.5t-42 20.5t-40.5 1q4 23 9 47.5t9 50.5q-111 35 -174 129.5t-81.5 212z" />
<glyph unicode="&#xe8;" d="M-1 459q-9 129 36 278q25 76 67.5 133.5t98 94t118 52t121.5 9.5q150 -14 223.5 -111.5t73.5 -246.5q0 -74 -26.5 -139.5t-72.5 -114.5t-110.5 -78t-138.5 -29q-31 0 -60.5 5t-58.5 16q45 -66 112 -83.5t131.5 1t116.5 68.5t70 122q12 -25 27.5 -55.5t30 -59t26 -53 t17.5 -39.5q-23 -45 -64 -90t-97 -78.5t-126 -51t-149 -7.5q-98 12 -179.5 72.5t-129.5 158t-57 226.5zM270 1122q6 43 16.5 101.5t20.5 109.5q16 -12 57 -35.5t87 -48t85 -44t51 -23.5q-8 -31 -15 -71t-9 -50q-14 2 -54 10t-86.5 18.5t-89.5 19.5t-63 13zM272 610 q4 -61 44 -87.5t94 -24.5q59 2 100 41t33 110q-6 59 -50.5 81t-95.5 18t-90 -38t-35 -100z" />
<glyph unicode="&#xe9;" d="M-1 459q-9 129 36 278q25 76 67.5 133.5t98 94t118 52t121.5 9.5q150 -14 223.5 -111.5t73.5 -246.5q0 -74 -26.5 -139.5t-72.5 -114.5t-110.5 -78t-138.5 -29q-31 0 -60.5 5t-58.5 16q45 -66 112 -83.5t131.5 1t116.5 68.5t70 122q12 -25 27.5 -55.5t30 -59t26 -53 t17.5 -39.5q-23 -45 -64 -90t-97 -78.5t-126 -51t-149 -7.5q-98 12 -179.5 72.5t-129.5 158t-57 226.5zM270 1182q12 4 51 23.5t85 44t87.5 48t57.5 35.5q10 -51 20 -109.5t16 -101.5q-20 -4 -63 -13t-89 -19.5t-86 -18.5t-54 -10q-2 10 -9.5 50t-15.5 71zM272 610 q4 -61 44 -87.5t94 -24.5q59 2 100 41t33 110q-6 59 -50.5 81t-95.5 18t-90 -38t-35 -100z" />
<glyph unicode="&#xea;" d="M-1 459q-9 129 36 278q25 76 67.5 133.5t98 94t118 52t121.5 9.5q150 -14 223.5 -111.5t73.5 -246.5q0 -74 -26.5 -139.5t-72.5 -114.5t-110.5 -78t-138.5 -29q-31 0 -60.5 5t-58.5 16q45 -66 112 -83.5t131.5 1t116.5 68.5t70 122q12 -25 27.5 -55.5t30 -59t26 -53 t17.5 -39.5q-23 -45 -64 -90t-97 -78.5t-126 -51t-149 -7.5q-98 12 -179.5 72.5t-129.5 158t-57 226.5zM233 1159q10 8 38 42t59.5 75t59.5 79t38 56l2 -2v2q10 -18 37.5 -56t59.5 -79t59.5 -75t37.5 -42q-20 -25 -42.5 -58.5t-28.5 -41.5q-12 8 -47 33.5t-76 54.5 q-41 -29 -77 -54.5t-46 -33.5q-6 8 -29.5 42t-44.5 58zM272 610q4 -61 44 -87.5t94 -24.5q59 2 100 41t33 110q-6 59 -50.5 81t-95.5 18t-90 -38t-35 -100z" />
<glyph unicode="&#xeb;" d="M-1 459q-9 129 36 278q25 76 67.5 133.5t98 94t118 52t121.5 9.5q150 -14 223.5 -111.5t73.5 -246.5q0 -74 -26.5 -139.5t-72.5 -114.5t-110.5 -78t-138.5 -29q-31 0 -60.5 5t-58.5 16q45 -66 112 -83.5t131.5 1t116.5 68.5t70 122q12 -25 27.5 -55.5t30 -59t26 -53 t17.5 -39.5q-23 -45 -64 -90t-97 -78.5t-126 -51t-149 -7.5q-98 12 -179.5 72.5t-129.5 158t-57 226.5zM190 1317q10 -2 39 -2t64 -1t68.5 -1t54.5 -2q2 -18 2 -49v-66t-1 -69.5t-1 -63.5q-16 -2 -45 -2t-59.5 1t-57.5 2t-39 5q0 18 -3 49t-7 66t-8.5 69.5t-6.5 63.5z M272 610q4 -61 44 -87.5t94 -24.5q59 2 100 41t33 110q-6 59 -50.5 81t-95.5 18t-90 -38t-35 -100zM440 1188q0 35 1 66t3 49q20 2 53 2t68 1t63.5 1t39.5 2q-2 -29 -5.5 -64t-7.5 -69.5t-7 -65.5t-3 -49q-12 -4 -39.5 -6t-58.5 -3t-59.5 0t-45.5 3q0 29 -1 63.5t-1 69.5z " />
<glyph unicode="&#xec;" horiz-adv-x="391" d="M-6 975q6 43 16.5 101.5t20.5 109.5q16 -12 57 -36t87 -48.5t85 -44t51 -23.5q-8 -31 -15 -70.5t-9 -50.5q-14 2 -54 10.5t-86.5 18.5t-89.5 19.5t-63 13.5zM12 856h65.5h92.5h90h62q-2 -16 -5.5 -78.5t-8.5 -148.5t-11 -184.5t-11 -188.5t-9.5 -159.5t-6.5 -96.5h-231 q0 33 -2 102.5t-5 156.5t-6 182.5t-6.5 180.5t-5.5 147t-2 87z" />
<glyph unicode="&#xed;" horiz-adv-x="391" d="M-2 1034q12 4 51 23.5t85 44t87.5 48.5t57.5 36q10 -51 20 -109.5t16 -101.5q-20 -4 -63 -13.5t-89 -19.5t-86 -18.5t-54 -10.5q-2 10 -9.5 50.5t-15.5 70.5zM12 856q0 -25 2 -87t5.5 -147t6.5 -180.5t6 -182.5t5 -156.5t2 -102.5h231q2 27 6.5 96.5t9.5 159.5t11 188.5 t11 184.5t8 148.5t6 78.5h-61.5h-90.5h-92.5h-65.5z" />
<glyph unicode="&#xee;" horiz-adv-x="391" d="M-31 1008q10 8 38 41.5t59.5 74.5t59.5 79t38 57l2 -3v3q10 -18 37.5 -56.5t59.5 -79.5t59.5 -74.5t37.5 -41.5q-20 -25 -42.5 -59t-28.5 -42q-12 8 -47 34t-76 54q-41 -29 -77 -54.5t-46 -33.5q-6 8 -29.5 42t-44.5 59zM12 856h65.5h92.5h90h62q-2 -16 -5.5 -78.5 t-8.5 -148.5t-11 -184.5t-11 -188.5t-9.5 -159.5t-6.5 -96.5h-231q0 33 -2 102.5t-5 156.5t-6 182.5t-6.5 180.5t-5.5 147t-2 87z" />
<glyph unicode="&#xef;" horiz-adv-x="391" d="M-78 1171q10 -2 39 -2t63.5 -1t68.5 -1t54 -2q2 -18 2.5 -49t0.5 -65.5t-1.5 -69.5t-1.5 -63q-16 -2 -44.5 -2.5t-59.5 1t-57.5 2.5t-38.5 5q0 18 -3 49t-7.5 65.5t-8.5 69t-6 63.5zM12 856h65.5h92.5h90h62q-2 -16 -5.5 -78.5t-8.5 -148.5t-11 -184.5t-11 -188.5 t-9.5 -159.5t-6.5 -96.5h-231q0 33 -2 102.5t-5 156.5t-6 182.5t-6.5 180.5t-5.5 147t-2 87zM172 1042.5q0 34.5 1 65.5t3 49q20 2 53 2t68 1t63.5 1t38.5 2q-2 -29 -5 -63.5t-7 -69.5t-7 -65.5t-3 -49.5q-12 -4 -40 -6t-58.5 -3t-59.5 0t-45 3q0 29 -1 64t-1 69.5z" />
<glyph unicode="&#xf1;" horiz-adv-x="894" d="M0 0v1028h330q-4 -27 -11 -141q59 88 133 121.5t143 15.5t124 -85.5t78 -182.5q16 -86 18 -190.5t-6 -209t-23.5 -199t-31.5 -157.5h-316q10 47 24.5 113.5t26 139.5t17.5 144.5t2 128t-23.5 91t-56.5 34.5q-45 -2 -83 -58t-56 -126q-6 -84 -11.5 -163t-10.5 -142.5 t-8 -106.5t-3 -55h-256zM199 1233q18 37 53 56.5t73 23.5t74 -5.5t60 -27.5q41 -31 82 -34t86 44q8 -14 17.5 -36.5t18.5 -46t17 -43t15 -27.5q-37 -33 -75 -51.5t-72 -24.5t-61.5 0t-43.5 22t-40 26.5t-49.5 10.5t-49 -9t-37.5 -30q-6 10 -13.5 29.5t-16.5 41.5t-18.5 43.5 t-19.5 37.5z" />
<glyph unicode="&#xf2;" d="M0 518q0 106 24.5 201.5t73.5 166t123 111.5t170 39q109 -2 183.5 -43t121.5 -111.5t67.5 -163.5t20.5 -200q0 -109 -27.5 -204t-78.5 -165.5t-124 -111.5t-163 -37q-100 2 -174 44t-122 110.5t-71.5 162t-23.5 201.5zM262 487q-16 -88 4.5 -152.5t87.5 -88.5 q59 -20 107.5 27t66.5 135q16 90 -3 149t-91 82q-66 23 -109.5 -19t-62.5 -133zM270 1122q6 43 16.5 101.5t20.5 109.5q16 -12 57 -35.5t87 -48t85 -44t51 -23.5q-8 -31 -15 -71t-9 -50q-14 2 -54 10t-86.5 18.5t-89.5 19.5t-63 13z" />
<glyph unicode="&#xf3;" d="M0 518q0 106 24.5 201.5t73.5 166t123 111.5t170 39q109 -2 183.5 -43t121.5 -111.5t67.5 -163.5t20.5 -200q0 -109 -27.5 -204t-78.5 -165.5t-124 -111.5t-163 -37q-100 2 -174 44t-122 110.5t-71.5 162t-23.5 201.5zM262 487q-16 -88 4.5 -152.5t87.5 -88.5 q59 -20 107.5 27t66.5 135q16 90 -3 149t-91 82q-66 23 -109.5 -19t-62.5 -133zM270 1182q12 4 51 23.5t85 44t87.5 48t57.5 35.5q10 -51 20 -109.5t16 -101.5q-20 -4 -63 -13t-89 -19.5t-86 -18.5t-54 -10q-2 10 -9.5 50t-15.5 71z" />
<glyph unicode="&#xf4;" d="M0 518q0 106 24.5 201.5t73.5 166t123 111.5t170 39q109 -2 183.5 -43t121.5 -111.5t67.5 -163.5t20.5 -200q0 -109 -27.5 -204t-78.5 -165.5t-124 -111.5t-163 -37q-100 2 -174 44t-122 110.5t-71.5 162t-23.5 201.5zM233 1159q10 8 38 42t59.5 75t59.5 79t38 56l2 -2v2 q10 -18 37.5 -56t59.5 -79t59.5 -75t37.5 -42q-20 -25 -42.5 -58.5t-28.5 -41.5q-12 8 -47 33.5t-76 54.5q-41 -29 -77 -54.5t-46 -33.5q-6 8 -29.5 42t-44.5 58zM262 487q-16 -88 4.5 -152.5t87.5 -88.5q59 -20 107.5 27t66.5 135q16 90 -3 149t-91 82q-66 23 -109.5 -19 t-62.5 -133z" />
<glyph unicode="&#xf5;" d="M0 518q0 106 24.5 201.5t73.5 166t123 111.5t170 39q109 -2 183.5 -43t121.5 -111.5t67.5 -163.5t20.5 -200q0 -109 -27.5 -204t-78.5 -165.5t-124 -111.5t-163 -37q-100 2 -174 44t-122 110.5t-71.5 162t-23.5 201.5zM180 1233q18 37 53 56.5t73 23.5t74 -5.5t60 -27.5 q41 -31 82 -34t86 44q8 -14 17.5 -36.5t18.5 -46t17 -43t15 -27.5q-37 -33 -75 -51.5t-72 -24.5t-61.5 0t-43.5 22t-40 26.5t-49.5 10.5t-49 -9t-37.5 -30q-6 10 -13.5 29.5t-16.5 41.5t-18.5 43.5t-19.5 37.5zM262 487q-16 -88 4.5 -152.5t87.5 -88.5q59 -20 107.5 27 t66.5 135q16 90 -3 149t-91 82q-66 23 -109.5 -19t-62.5 -133z" />
<glyph unicode="&#xf6;" d="M0 518q0 106 24.5 201.5t73.5 166t123 111.5t170 39q109 -2 183.5 -43t121.5 -111.5t67.5 -163.5t20.5 -200q0 -109 -27.5 -204t-78.5 -165.5t-124 -111.5t-163 -37q-100 2 -174 44t-122 110.5t-71.5 162t-23.5 201.5zM190 1317q10 -2 39 -2t64 -1t68.5 -1t54.5 -2 q2 -18 2 -49v-66t-1 -69.5t-1 -63.5q-16 -2 -45 -2t-59.5 1t-57.5 2t-39 5q0 18 -3 49t-7 66t-8.5 69.5t-6.5 63.5zM262 487q-16 -88 4.5 -152.5t87.5 -88.5q59 -20 107.5 27t66.5 135q16 90 -3 149t-91 82q-66 23 -109.5 -19t-62.5 -133zM440 1188q0 35 1 66t3 49 q20 2 53 2t68 1t63.5 1t39.5 2q-2 -29 -5.5 -64t-7.5 -69.5t-7 -65.5t-3 -49q-12 -4 -39.5 -6t-58.5 -3t-59.5 0t-45.5 3q0 29 -1 63.5t-1 69.5z" />
<glyph unicode="&#xf7;" horiz-adv-x="385" d="M16 2q0 27 1 62.5t3.5 71.5t2.5 69v51q20 0 56 1t75 1t75.5 -1t57.5 -1q4 -55 10 -128t12 -128h-71.5h-87t-82 1t-52.5 1zM16 354q0 27 1 64t3.5 72.5t2.5 67.5v50q20 0 56 1t75 1t75.5 -1t57.5 -1q4 -55 10 -128t12 -128h-71.5h-87t-82 1t-52.5 1z" />
<glyph unicode="&#xf9;" horiz-adv-x="927" d="M6.5 479.5q-2.5 102.5 7 202.5t24.5 191.5t30 156.5h292q-23 -84 -41 -174t-28 -177t-11 -164t10 -136.5t37.5 -94t69.5 -34.5q29 0 53.5 22.5t43 60.5t31 86t18.5 97q0 90 -1 176t-2 157t-1 120v61h309q0 -18 -5 -96t-11.5 -187.5t-12.5 -233.5t-12 -231.5t-11 -185.5 t-5 -94h-246v178q-43 -96 -118 -142t-153.5 -35t-147.5 81t-99 205q-18 88 -20.5 190.5zM305 1122q6 43 16.5 101.5t20.5 109.5q16 -12 57 -35.5t87 -48t85 -44t51 -23.5q-8 -31 -15 -71t-9 -50q-14 2 -54 10t-86.5 18.5t-89.5 19.5t-63 13z" />
<glyph unicode="&#xfa;" horiz-adv-x="927" d="M6.5 479.5q-2.5 102.5 7 202.5t24.5 191.5t30 156.5h292q-23 -84 -41 -174t-28 -177t-11 -164t10 -136.5t37.5 -94t69.5 -34.5q29 0 53.5 22.5t43 60.5t31 86t18.5 97q0 90 -1 176t-2 157t-1 120v61h309q0 -18 -5 -96t-11.5 -187.5t-12.5 -233.5t-12 -231.5t-11 -185.5 t-5 -94h-246v178q-43 -96 -118 -142t-153.5 -35t-147.5 81t-99 205q-18 88 -20.5 190.5zM305 1182q12 4 51 23.5t85 44t87.5 48t57.5 35.5q10 -51 20 -109.5t16 -101.5q-20 -4 -63 -13t-89 -19.5t-86 -18.5t-54 -10q-2 10 -9.5 50t-15.5 71z" />
<glyph unicode="&#xfb;" horiz-adv-x="927" d="M6.5 479.5q-2.5 102.5 7 202.5t24.5 191.5t30 156.5h292q-23 -84 -41 -174t-28 -177t-11 -164t10 -136.5t37.5 -94t69.5 -34.5q29 0 53.5 22.5t43 60.5t31 86t18.5 97q0 90 -1 176t-2 157t-1 120v61h309q0 -18 -5 -96t-11.5 -187.5t-12.5 -233.5t-12 -231.5t-11 -185.5 t-5 -94h-246v178q-43 -96 -118 -142t-153.5 -35t-147.5 81t-99 205q-18 88 -20.5 190.5zM268 1159q10 8 38 42t59.5 75t59.5 79t38 56l2 -2v2q10 -18 37.5 -56t59.5 -79t59.5 -75t37.5 -42q-20 -25 -42.5 -58.5t-28.5 -41.5q-12 8 -47 33.5t-76 54.5q-41 -29 -77 -54.5 t-46 -33.5q-6 8 -29.5 42t-44.5 58z" />
<glyph unicode="&#xfc;" horiz-adv-x="927" d="M6.5 479.5q-2.5 102.5 7 202.5t24.5 191.5t30 156.5h292q-23 -84 -41 -174t-28 -177t-11 -164t10 -136.5t37.5 -94t69.5 -34.5q29 0 53.5 22.5t43 60.5t31 86t18.5 97q0 90 -1 176t-2 157t-1 120v61h309q0 -18 -5 -96t-11.5 -187.5t-12.5 -233.5t-12 -231.5t-11 -185.5 t-5 -94h-246v178q-43 -96 -118 -142t-153.5 -35t-147.5 81t-99 205q-18 88 -20.5 190.5zM225 1317q10 -2 39 -2t64 -1t68.5 -1t54.5 -2q2 -18 2 -49v-66t-1 -69.5t-1 -63.5q-16 -2 -45 -2t-59.5 1t-57.5 2t-39 5q0 18 -3 49t-7 66t-8.5 69.5t-6.5 63.5zM475 1188q0 35 1 66 t3 49q20 2 53 2t68 1t63.5 1t39.5 2q-2 -29 -5.5 -64t-7.5 -69.5t-7 -65.5t-3 -49q-12 -4 -39.5 -6t-58.5 -3t-59.5 0t-45.5 3q0 29 -1 63.5t-1 69.5z" />
<glyph unicode="&#xfd;" horiz-adv-x="894" d="M-47 -115q18 2 52 4t73 4.5t78 4.5t67 4q-4 -25 1 -58.5t21.5 -64.5t45 -52.5t69.5 -21.5q47 0 76 35t45.5 93t23.5 137t11 167q-47 -80 -119.5 -114.5t-146.5 -18.5t-137.5 85t-92.5 198q-18 88 -20 190.5t7 202.5t24.5 190.5t29.5 155.5h293q-23 -84 -41 -174 t-28.5 -176t-11.5 -163t10.5 -136.5t38 -94t69.5 -34.5q27 -2 50.5 18.5t42 55t31.5 79.5t20 93q4 80 8 159.5t7 150t6 129t5 95.5q25 0 65 -1t83 -1t81.5 1t59.5 3q-2 -31 -7 -120t-12.5 -202.5t-15.5 -230.5t-14 -203q-16 -203 -40 -358.5t-73 -261t-134 -160.5t-226 -55 q-72 0 -137.5 27.5t-116.5 84t-83 140.5t-38 194zM289 1182q12 4 51 23.5t85 44t87.5 48t57.5 35.5q10 -51 20 -109.5t16 -101.5q-20 -4 -63 -13t-89 -19.5t-86 -18.5t-54 -10q-2 10 -9.5 50t-15.5 71z" />
<glyph unicode="&#xff;" horiz-adv-x="894" d="M-47 -115q18 2 52 4t73 4.5t78 4.5t67 4q-4 -25 1 -58.5t21.5 -64.5t45 -52.5t69.5 -21.5q47 0 76 35t45.5 93t23.5 137t11 167q-47 -80 -119.5 -114.5t-146.5 -18.5t-137.5 85t-92.5 198q-18 88 -20 190.5t7 202.5t24.5 190.5t29.5 155.5h293q-23 -84 -41 -174 t-28.5 -176t-11.5 -163t10.5 -136.5t38 -94t69.5 -34.5q27 -2 50.5 18.5t42 55t31.5 79.5t20 93q4 80 8 159.5t7 150t6 129t5 95.5q25 0 65 -1t83 -1t81.5 1t59.5 3q-2 -31 -7 -120t-12.5 -202.5t-15.5 -230.5t-14 -203q-16 -203 -40 -358.5t-73 -261t-134 -160.5t-226 -55 q-72 0 -137.5 27.5t-116.5 84t-83 140.5t-38 194zM208 1317q10 -2 39 -2t64 -1t68.5 -1t54.5 -2q2 -18 2 -49v-66t-1 -69.5t-1 -63.5q-16 -2 -45 -2t-59.5 1t-57.5 2t-39 5q0 18 -3 49t-7 66t-8.5 69.5t-6.5 63.5zM458 1188q0 35 1 66t3 49q20 2 53 2t68 1t63.5 1t39.5 2 q-2 -29 -5.5 -64t-7.5 -69.5t-7 -65.5t-3 -49q-12 -4 -39.5 -6t-58.5 -3t-59.5 0t-45.5 3q0 29 -1 63.5t-1 69.5z" />
<glyph unicode="&#x152;" horiz-adv-x="1652" d="M0 711q0 147 34 278t100.5 228.5t165.5 152.5t232 53q121 -2 213 -43v39q2 0 52.5 1t129.5 2t176 2t191.5 1t175 -2t127.5 -6v-332q-20 0 -70 1t-115.5 2.5t-142.5 3.5t-151 4q-6 -59 -12 -124t-12 -132q66 4 142.5 6t133.5 8q0 -25 -1 -79t-2 -114.5t-4 -113.5t-5 -72 q-23 4 -57.5 8t-76.5 7.5t-84 6.5t-79 7q-4 -43 -8 -85t-9 -83q68 4 146 8t153.5 7t141 4t106.5 -1v-354h-92h-149h-178.5h-176.5h-144.5h-82.5h-25v47q-94 -51 -211 -47q-137 4 -237 61.5t-166 152.5t-97.5 222t-31.5 275zM326 688q0 -80 12 -148.5t37.5 -118.5t64.5 -81 t92 -33q47 -2 86 28t66 82t41 121.5t14 149.5q0 78 -11 146.5t-35.5 121t-63.5 82t-97 31.5q-51 0 -90 -29.5t-64.5 -82t-38.5 -122t-13 -147.5z" />
<glyph unicode="&#x153;" horiz-adv-x="1443" d="M0 518q0 106 24.5 201.5t73.5 166t123 111.5t170 39q100 -4 171 -38.5t118 -96.5q66 70 148.5 101.5t164.5 23.5q150 -14 223.5 -111.5t73.5 -246.5q0 -74 -26.5 -139.5t-72.5 -114.5t-110.5 -78t-138.5 -29q-31 0 -60.5 5t-58.5 16q45 -66 111.5 -83.5t131 1t117 68.5 t70.5 122q12 -25 27.5 -55.5t30 -59t26 -53t17.5 -39.5q-23 -45 -64 -90t-97 -78.5t-126 -51t-149 -7.5q-147 18 -248 135q-51 -66 -121 -103.5t-158 -33.5q-100 2 -174 44t-122 110.5t-71.5 162t-23.5 201.5zM262 487q-16 -88 4.5 -152.5t87.5 -88.5q59 -20 107.5 27 t66.5 135q16 90 -3 149t-91 82q-66 23 -109.5 -19t-62.5 -133zM825 610q4 -61 44 -87.5t94 -24.5q59 2 100 41t33 110q-6 59 -50.5 81t-95.5 18t-90 -38t-35 -100z" />
<glyph unicode="&#x178;" horiz-adv-x="1064" d="M1 985q-7 186 42 442h375q0 -4 -14.5 -61t-29 -141t-23.5 -181.5t1 -181.5t45 -139t111 -57q78 -2 112.5 53t41 138t-9 180.5t-35 182.5t-37 144t-17.5 63q37 0 88 -1t104.5 -1h104.5h86q59 -254 57 -438t-48 -311t-124.5 -201t-171.5 -104q6 -41 13.5 -89.5t13.5 -98.5 t12.5 -97t12.5 -86q-35 0 -90.5 1t-115 1t-113.5 -1t-85 -1q8 78 19.5 171t27.5 198q-94 29 -173 102.5t-126 200.5t-54 313zM292 1749q10 -2 39 -2t64 -1t68.5 -1t54.5 -2q2 -18 2 -49v-66t-1 -69.5t-1 -63.5q-16 -2 -45 -2t-59.5 1t-57.5 2t-39 5q0 18 -3 49t-7 66 t-8.5 69.5t-6.5 63.5zM542 1620q0 35 1 66t3 49q20 2 53 2t68 1t63.5 1t39.5 2q-2 -29 -5.5 -64t-7.5 -69.5t-7 -65.5t-3 -49q-12 -4 -39.5 -6t-58.5 -3t-59.5 0t-45.5 3q0 29 -1 63.5t-1 69.5z" />
<glyph unicode="&#x2c6;" horiz-adv-x="837" d="M223 1159q10 8 38 42t59.5 75t59.5 79t38 56l2 -2v2q10 -18 37.5 -56t59.5 -79t59.5 -75t37.5 -42q-20 -25 -42.5 -58.5t-28.5 -41.5q-12 8 -47 33.5t-76 54.5q-41 -29 -77 -54.5t-46 -33.5q-6 8 -29.5 42t-44.5 58z" />
<glyph unicode="&#x2dc;" horiz-adv-x="847" d="M170 1233q18 37 53 56.5t73 23.5t74 -5.5t60 -27.5q41 -31 82 -34t86 44q8 -14 17.5 -36.5t18.5 -46t17 -43t15 -27.5q-37 -33 -75 -51.5t-72 -24.5t-61.5 0t-43.5 22t-40 26.5t-49.5 10.5t-49 -9t-37.5 -30q-6 10 -13.5 29.5t-16.5 41.5t-18.5 43.5t-19.5 37.5z" />
<glyph unicode="&#x2000;" horiz-adv-x="921" />
<glyph unicode="&#x2001;" horiz-adv-x="1843" />
<glyph unicode="&#x2002;" horiz-adv-x="921" />
<glyph unicode="&#x2003;" horiz-adv-x="1843" />
<glyph unicode="&#x2004;" horiz-adv-x="614" />
<glyph unicode="&#x2005;" horiz-adv-x="460" />
<glyph unicode="&#x2006;" horiz-adv-x="307" />
<glyph unicode="&#x2007;" horiz-adv-x="307" />
<glyph unicode="&#x2008;" horiz-adv-x="230" />
<glyph unicode="&#x2009;" horiz-adv-x="368" />
<glyph unicode="&#x200a;" horiz-adv-x="102" />
<glyph unicode="&#x2010;" horiz-adv-x="696" d="M0 465v57t2 84t4 89t6 73q14 0 59.5 1t105 1h127t126.5 -1t101.5 -2t52.5 -3v-56t2 -82t3 -87t1 -70q-10 2 -52 2t-101.5 -1t-128 -3t-131 -3t-111 -1t-66.5 2z" />
<glyph unicode="&#x2011;" horiz-adv-x="696" d="M0 465v57t2 84t4 89t6 73q14 0 59.5 1t105 1h127t126.5 -1t101.5 -2t52.5 -3v-56t2 -82t3 -87t1 -70q-10 2 -52 2t-101.5 -1t-128 -3t-131 -3t-111 -1t-66.5 2z" />
<glyph unicode="&#x2012;" horiz-adv-x="696" d="M0 465v57t2 84t4 89t6 73q14 0 59.5 1t105 1h127t126.5 -1t101.5 -2t52.5 -3v-56t2 -82t3 -87t1 -70q-10 2 -52 2t-101.5 -1t-128 -3t-131 -3t-111 -1t-66.5 2z" />
<glyph unicode="&#x2013;" horiz-adv-x="1015" d="M0 465v57t2 84t4 89t6 73q14 0 78 1t153 1h190.5t189.5 -1t149.5 -2t71.5 -3v-56t2 -82t3 -87t1 -70q-8 2 -70.5 2t-150.5 -1t-190.5 -3t-193.5 -3t-159 -1t-86 2z" />
<glyph unicode="&#x2014;" horiz-adv-x="1402" d="M0 465v57t2 84t4 89t6 73q10 0 68.5 1t145.5 1h196.5h223.5t222.5 -1t195.5 -1t142.5 -1t63.5 -3v-56t2 -82t3 -87t1 -70q-6 2 -62.5 2t-142.5 -1t-195.5 -2t-224 -1t-225.5 -1t-201 -2t-150.5 -1t-74.5 2z" />
<glyph unicode="&#x202f;" horiz-adv-x="368" />
<glyph unicode="&#x205f;" horiz-adv-x="460" />
<glyph unicode="&#x20ac;" horiz-adv-x="1075" d="M51 459q-2 31 2 84t8 102h86q2 12 3.5 25.5t3.5 25.5h-82q0 31 3 85.5t9 101.5q10 0 44 1t81 1q37 86 89 160.5t115.5 129t136.5 80t150 13.5q90 -14 143.5 -58.5t81 -100.5t36 -115.5t6.5 -102.5q-29 0 -63 -2t-70.5 -3t-72.5 -3t-67 -2q0 57 -18.5 83.5t-46 26.5 t-59 -27.5t-62.5 -80.5q63 0 80 -4q-2 -33 2 -81t4 -98q-10 2 -52 2t-102 -2q-4 -14 -6 -27.5t-4 -27.5q53 0 89 -1t46 -3q-2 -35 2 -82t4 -96q-8 2 -39.5 1t-78.5 -1q20 -39 52 -51.5t65.5 3t63.5 59.5t46 120q55 2 139 1t152 -1q-4 -53 -32 -128t-80 -141.5t-130 -112.5 t-182 -44q-88 2 -155.5 24.5t-115 60.5t-77 90t-43.5 114h-65t-40 2z" />
<glyph unicode="&#x2122;" horiz-adv-x="1036" d="M76 1227v121q12 4 27.5 4h31.5v45h174q-2 -6 -2 -39q27 4 48.5 4t33.5 2q-4 -27 -8 -72t-8 -65h-76q-4 -76 -8 -165t-8.5 -168t-7.5 -136.5t-3 -69.5h-129q0 29 -1 90.5t-2 138t-2 158.5t-1 152h-59zM334 688v483h151v-15t-2 -26q23 27 53.5 37.5t61.5 2t56.5 -35 t39.5 -71.5q27 57 65 85t73.5 22.5t65.5 -40.5t42 -98q8 -43 8 -90t-4 -93t-12 -88t-17 -73h-141q8 39 19.5 91t16.5 100.5t-1 84t-31 44.5q-27 4 -47 -19.5t-24 -73.5q-4 -63 -11.5 -124.5t-17.5 -102.5h-150q8 39 18.5 90t13.5 97.5t-4 81t-32 40.5q-39 8 -55 -53 q-2 -43 -5 -87t-5 -79t-4 -59.5t-2 -30.5h-119z" />
<glyph unicode="&#x25fc;" horiz-adv-x="1024" d="M0 0v1024h1024v-1024h-1024z" />
</font>
</defs>
</svg>
